<?xml version="1.0" encoding="UTF-8"?>
<svg id="Layer_1" data-name="Layer 1" xmlns="http://www.w3.org/2000/svg" viewBox="0 0 148.24 323.84">
  <defs>
    <style>
      .cls-1 {
        fill: #004174;
        stroke-width: 0px;
      }
    </style>
  </defs>
  <path class="cls-1" d="m148.03,189.51H0c0-3.12,0-6.24,0-9.36.01-14.82.01-29.64.04-44.46.01-7.62,3.86-11.05,12.56-11.05,41.04-.02,82.08-.02,123.12,0,8.52,0,12.49,3.44,12.5,10.73.02,16.78.02,33.57.02,50.35,0,1.19-.13,2.38-.21,3.79Z"/>
  <path class="cls-1" d="m.17,259.02h148.07c0,1.36,0,2.55,0,3.74,0,16.68,0,33.35-.02,50.03,0,7.66-3.83,11.05-12.51,11.05-41.06.01-82.13.01-123.19,0-8.49,0-12.47-3.39-12.49-10.73-.04-17.05-.01-34.09,0-51.14,0-.84.08-1.68.14-2.95Z"/>
  <path class="cls-1" d="m.28,196.13h147.6v56.11H.28v-56.11Zm35.88,30.65c.47.32.93.64,1.4.96-.9,1.79-1.24,4.36-2.81,5.23-6.95,3.84-15.76-.31-16.5-7.42-.43-4.11.89-7.58,4.98-9.85,4.11-2.28,8.19-1.59,12.37.24,1.25.55,3.12,0,4.71-.05-.72-1.37-1-3.31-2.22-4-7.1-4-17.36-2.34-22.41,3.36-4.57,5.16-4.64,13.14-.17,18.15,4.76,5.33,13.76,6.83,21.87,3.65,4.11-1.61,6.88-10.17,4.22-13.28-.44-.52-1.39-.98-2.12-1-3.08-.1-6.19-.15-9.26.07-.79.06-2.21,1.34-2.08,1.74.28.84,1.29,1.95,2.19,2.1,1.87.32,3.87.1,5.82.1Zm81.6-12.06c4.93,0,9.68.16,14.41-.11,1.24-.07,2.38-1.46,3.57-2.24-1.11-.68-2.2-1.9-3.34-1.95-5.6-.2-11.22-.07-16.83-.11-2.72-.02-3.68,1.15-3.66,3.42.08,6.97.08,13.95,0,20.92-.03,2.66,1.3,3.74,4.32,3.68,5.19-.09,10.39.13,15.57-.12,1.41-.07,2.74-1.37,4.11-2.11-1.34-.73-2.63-2.02-4.02-2.1-4.69-.26-9.41-.1-14.16-.1v-7.55c4.55,0,8.75.16,12.92-.11,1.1-.07,2.08-1.48,3.12-2.27-1.02-.66-1.96-1.72-3.08-1.89-2.04-.31-4.19-.11-6.3-.11q-7.54,0-6.64-7.28Zm-41.15,5.94h.01c0,2.32-.09,4.65.02,6.97.31,6.71,5.14,10.8,12.89,10.98,8.53.2,13.73-3.45,14.27-10.44.37-4.87.33-9.79.07-14.67-.06-1.16-1.78-2.24-2.73-3.36-.88,1.17-2.44,2.31-2.53,3.52-.32,4.26-.03,8.56-.16,12.84-.14,4.6-2.51,7.13-6.78,7.54-5.56.53-8.99-1.78-9.29-6.7-.28-4.64.08-9.31-.28-13.93-.09-1.14-1.87-2.18-2.88-3.27-.87,1.06-2.31,2.05-2.49,3.19-.39,2.4-.12,4.88-.12,7.33Zm-21.36,13.21c0-1.79,0-3.11,0-4.42,0-5.38.14-10.76-.13-16.12-.06-1.1-1.67-2.13-2.57-3.2-.98,1.09-2.77,2.16-2.81,3.28-.26,7.08-.07,14.17-.16,21.26-.03,2.71,1.4,3.72,4.35,3.68,4.76-.06,9.54.15,14.28-.12,1.4-.08,2.71-1.41,4.07-2.16-1.35-.73-2.66-1.99-4.06-2.08-4.14-.28-8.32-.1-12.95-.1Z"/>
  <path class="cls-1" d="m102.24,118.15c0-6.04-.02-11.78,0-17.53,0-2.34-.17-4.81-3.66-4.72-3.45.08-3.49,2.55-3.47,4.89.06,5.73.02,11.47.02,17.42h-17.48c0-6.16.16-12.15-.12-18.11-.07-1.41-1.22-3.32-2.55-4.03-2.07-1.11-4.33.92-4.37,3.82-.08,5.99-.02,11.98-.02,18.26h-17.49c0-5.13,0-10.23,0-15.34,0-1.1.43-2.41-.1-3.27-.86-1.4-2.35-2.5-3.57-3.73-1.13,1.18-3.14,2.31-3.24,3.56-.39,4.88-.18,9.8-.18,14.71,0,1.31,0,2.63,0,4.14h-14.18c0-6.17,0-12.14,0-18.12,0-6.62-.04-13.24.02-19.87.04-5.13,2.64-7.51,8.41-7.53,22.64-.05,45.29-.05,67.93-.02,4.8,0,8.06,2.2,8.1,5.87.16,13.11.06,26.21.06,39.58h-14.11Z"/>
  <path class="cls-1" d="m90.18,66.13h-32.12c4.71-22.05,9.39-43.95,14.06-65.76,2.44-.67,3.95-.61,4.47,1.87,4.44,21.16,8.98,42.3,13.59,63.89Z"/>
  <path class="cls-1" d="m36.16,226.78c-1.95,0-3.94.22-5.82-.1-.9-.16-1.92-1.26-2.19-2.1-.13-.4,1.29-1.69,2.08-1.74,3.07-.22,6.17-.17,9.26-.07.73.02,1.67.48,2.12,1,2.66,3.11-.11,11.66-4.22,13.28-8.11,3.19-17.12,1.68-21.87-3.65-4.48-5.02-4.4-12.99.17-18.15,5.04-5.7,15.3-7.37,22.41-3.36,1.22.69,1.5,2.63,2.22,4-1.59.05-3.46.6-4.71.05-4.18-1.83-8.27-2.52-12.37-.24-4.09,2.27-5.4,5.74-4.98,9.85.74,7.12,9.55,11.27,16.5,7.42,1.57-.87,1.91-3.44,2.81-5.23-.47-.32-.93-.64-1.4-.96Z"/>
  <path class="cls-1" d="m117.76,214.71q-.9,7.28,6.64,7.28c2.1,0,4.25-.2,6.3.11,1.12.17,2.06,1.23,3.08,1.89-1.04.79-2.02,2.2-3.12,2.27-4.17.27-8.38.11-12.92.11v7.55c4.75,0,9.47-.16,14.16.1,1.38.08,2.68,1.36,4.02,2.1-1.37.74-2.7,2.04-4.11,2.11-5.18.25-10.38.02-15.57.12-3.03.06-4.35-1.02-4.32-3.68.07-6.97.07-13.95,0-20.92-.02-2.28.94-3.44,3.66-3.42,5.61.04,11.23-.1,16.83.11,1.14.04,2.23,1.27,3.34,1.95-1.19.78-2.33,2.17-3.57,2.24-4.73.27-9.48.11-14.41.11Z"/>
  <path class="cls-1" d="m76.61,220.66c0-2.45-.27-4.93.12-7.33.19-1.14,1.62-2.13,2.49-3.19,1,1.09,2.79,2.13,2.88,3.27.36,4.63,0,9.3.28,13.93.3,4.91,3.74,7.23,9.29,6.7,4.26-.41,6.64-2.94,6.78-7.54.13-4.28-.16-8.57.16-12.84.09-1.22,1.64-2.35,2.53-3.52.95,1.12,2.67,2.21,2.73,3.36.27,4.88.3,9.79-.07,14.67-.53,6.99-5.73,10.64-14.27,10.44-7.75-.18-12.59-4.27-12.89-10.98-.11-2.32-.02-4.65-.02-6.97h-.01Z"/>
  <path class="cls-1" d="m55.25,233.87c4.63,0,8.81-.18,12.95.1,1.41.1,2.71,1.36,4.06,2.08-1.35.76-2.66,2.08-4.07,2.16-4.74.27-9.52.06-14.28.12-2.94.04-4.38-.98-4.35-3.68.09-7.09-.1-14.18.16-21.26.04-1.12,1.83-2.19,2.81-3.28.9,1.07,2.52,2.1,2.57,3.2.27,5.37.13,10.75.13,16.12,0,1.32,0,2.63,0,4.42Z"/>
</svg>