<?xml version="1.0" encoding="UTF-8"?>
<svg id="Layer_1" data-name="Layer 1" xmlns="http://www.w3.org/2000/svg" viewBox="0 0 300.08 307.74">
  <defs>
    <style>
      .cls-1 {
        fill: #004174;
        fill-rule: evenodd;
        stroke-width: 0px;
      }
    </style>
  </defs>
  <path class="cls-1" d="m39.21,264.19c-2.35-6.6-6.03-12.39-11.03-17.37-1.5,5.01-1.73,10.45-.91,16.26,3.61,1.44,7.26,2.78,11.94,1.11Z"/>
  <path class="cls-1" d="m20.99,258.84c-1.02-5.76-2.04-11.48-3.05-17.07-5.35.87-8.85,3.8-10.29,9.03,3.66,4.6,7.88,7.83,13.34,8.04Z"/>
  <path class="cls-1" d="m269.08,302.1c-5.01,1.19-9.91,2.37-14.64,2.57-.74.03-.34,1.65-1,1.99-.81.42-2.39.8-2.75-.04-.47-1.09.63-2.33,1.32-3.29.51-.7,1.26-1.48,2.12-1.5,4.81-.12,9.69-1.01,14.56-2.4.82-.23,1.86-.09,2.5.47.83.73,1.43,1.88,1.43,2.99,0,.4-.42.75-.86.9.59-.17,1.18-.32,1.77-.5,8.85-5.33,17.71-10.66,26.56-15.99-.4-5.33-.81-10.66-1.21-15.99-4.27-1.65-8.53-3.31-12.8-4.96-8.58,3.13-17.16,6.25-25.73,9.38-1.97-5.34-4.77-15.79-12.94-13.43-2.26-3.41-4.51-6.83-6.77-10.24-2.84-10.31-5.69-20.62-8.53-30.93-.4-1.52-.8-3.04-1.2-4.56-.55.15-1.09.3-1.64.46.49,1.81.97,3.63,1.46,5.44-3.48-.25-6.54.38-9.72,2.1-.42-1.59-.83-3.17-1.25-4.76-.44.14-.88.28-1.32.42.17.69.34,1.37.52,2.06,2.36,9.69,4.72,19.38,7.08,29.07,2.44,5.14,4.88,10.27,7.32,15.41-3.01,2.98-3.59,7.52-3.08,12.76-10.35.49-20.7.98-31.05,1.47-.68,6.45-1.35,12.89-2.03,19.34,2.7,1.99,5.4,3.99,8.1,5.98,11.31.44,22.61.87,33.92,1.31,10.81.44,21.59-.74,32.34-3.8-.14.03-.27.04-.39.01-.89-.2-1.2-1.98-2.09-1.77Zm-26.71-15.11c7.87-3.89,16.46-4.66,25.08-5.33.31,3.03.62,6.07.93,9.1-6.3,0-12.47.9-18.51,2.72-2.5-2.16-5-4.33-7.5-6.49Z"/>
  <path class="cls-1" d="m218.21,213.31c2.49-2.7,5.74-3.25,9.09-3.48,4.14,15.47,8.28,30.95,12.42,46.42.55-.15,1.09-.31,1.64-.46-4.27-16.18-8.54-32.36-12.82-48.54,1.23-8.31-1.16-15.84-6.03-22.85-7.37-27.93-14.75-55.86-22.12-83.79.18-7.01-1.83-13.31-5.07-19.21-2.2-8.32-4.39-16.63-6.59-24.95-5.07-26.31-15.99-62.53-25.42-55.59-6.99,4.36-21.31,16.31-19.33,27.47-4.2,3.33-8.77,7.61-5.74,20.97,29.84,80.39,60.1,149.66-8.08,162.09-.66-1.72-1.31-3.43-1.97-5.15-.79-.14-1.57-.29-2.36-.43-10.29-17.8-23.53-30.75-42.03-35.07-5.34.15-10.39,1.79-14.45,8.72.34,3.44.68,6.89,1.02,10.33-16.48-.34-27.04,5.77-28.94,21.29-2.89,1.32-5.77,2.63-8.66,3.95-2.31.34-4.61.67-6.92,1.01-3.52,3.64-7.03,7.28-10.55,10.91,2.07-.78,4.15-1.56,6.22-2.34-4.13,2.75-8.26,5.51-12.38,8.26-8.71,9.76-12.51,23.17-5.51,44.6,7.02,16.52,16.34,28.72,32.03,28.98,12.82,1.13,25.12-1.47,37.26-5.11,17.32,4.27,41.7,2.06,64.66,1.14,4.15-1.64,8.29-3.27,12.44-4.91,4.82-2.07,9.72-3.49,13.15-15.88.1-2.91,2.56-6.14,1.58-12.1-1.62-9.92-7.9-18.5-11.21-27.99-2.01-5.76-6.69-11.32-12.52-16.73,55.91-21.49,45.97-87.44,5.7-173.85-1.64-5.46-2.01-10.36,2.13-13.22,10.01,7.36,20.02,14.73,30.03,22.09,2.16,8.63,4.32,17.26,6.49,25.89.27,6.75,1.95,12.77,4.58,18.3,7.08,28.25,14.15,56.49,21.23,84.74-.39,7.98,2.35,15.12,5.55,22.14,4.05,16.15,8.09,32.3,12.14,48.46.44-.14.88-.28,1.32-.42-4-15.24-7.99-30.48-11.99-45.73ZM29.23,302.84c-10.62.18-21.81-13.75-24.98-31.1-3.17-17.35,2.87-31.57,13.5-31.75,10.62-.18,21.81,13.75,24.98,31.1,3.17,17.35-2.87,31.57-13.5,31.75Zm72.81-99.83h0c-7.11-3.49-14.39-6.43-21.93-8.48h0c-5.98-16.68,20.82.93,21.93,8.48Zm-15.83,4.18c1.12,1.15-1.4,2-1.88,1.22-5.81-9.57-20.14-3.08-9.06,1.32-12.36-3.27.43-13.33,10.94-2.54Zm-19.7,20.85c-4.1-4.39-8.19-8.77-12.29-13.16-1.21-1.06-1.57-2.29-.07-3.9,1.07-.85,2.14-1.71,3.21-2.56-1.38.49-2.74,1.05-4.15,1.46-5.02,1.48-4.09-4.16,0-5.94,7.59-3.3,14.69-3.56,21.49-2.5-6.67,2.41-12.91,5.62-18.58,9.88-.91.68-.84,1.51-.33,2.42,2.99,3.2,5.99,6.4,8.98,9.59,1.23.87,2.58.74,3.99.12,12.15-7.93,25.32-12.08,39.32-13.1.32.8.65,1.6.97,2.4-14.18,5.1-28.35,10.2-42.53,15.29Zm86.99,29.19c.51,1.76,1.02,3.52,1.54,5.28-4.46,5.17-10.52,8.32-18.92,8.52-1-1.91-2-3.83-2.99-5.74,7.08-1.64,13.82-4.51,20.37-8.07Zm32.62-169.43c-1.94-8.47-4.43-16.75-6.37-25.22.86-.28,2.96-1.85,3.82-2.13-6.92-16.36-11.88-33.7-20.77-49.08-1.18-2.03-7.97,1.4-10.29,1.77,3.41-2.85,6.43-6.19,11.33-8.82,8.37-4.5,17.52,27.9,23.84,55.01,1.68,7.2,5.29,18.77,6.85,25.09-2.13-.06-6.33,1.36-8.42,3.38Zm25.98,103.52c-7.07-28.3-14.14-56.61-21.21-84.91,2.6-2.31,5.59-3.06,8.79-2.95,7.24,28.07,14.47,56.15,21.71,84.22-3.21.33-6.33,1.36-9.29,3.64Z"/>
  <path class="cls-1" d="m30.98,274.78c1.79,9.09,4.47,15.74,8.72,17.99,2.11-5.06,3.11-10.92,1.57-18.6-3.4-.38-6.81-.45-10.29.61Z"/>
  <path class="cls-1" d="m6.11,262.87c.17,7.69,2.38,14.42,6.01,20.5,3.35-4.12,6.19-7.74,8.22-11.6-4.49-4.39-9.21-7.52-14.23-8.9Z"/>
  <path class="cls-1" d="m17.65,293c4.12,5.48,8.81,8.1,14.06,7.89-1.55-6.58-3.3-13.13-5.99-19.49-2.9,3.33-5.61,7.14-8.07,11.6Z"/>
</svg>