<?xml version="1.0" encoding="UTF-8"?>
<svg id="Layer_1" data-name="Layer 1" xmlns="http://www.w3.org/2000/svg" viewBox="0 0 422.29 335.04">
  <defs>
    <style>
      .cls-1 {
        fill: #004174;
        stroke-width: 0px;
      }
    </style>
  </defs>
  <g>
    <path class="cls-1" d="m86.73,94.84c16.65-1.2,32.18-2.34,47.71-3.44,46.71-3.31,93.42-6.61,140.13-9.92,13.73-.97,27.45-2.01,41.18-2.92,7.05-.47,13.44-2.14,18.75-6.1,3.83-2.86,3.35-4.64,5.88-6,11.36-6.11,40.92,14.31,40,31.88-.06,1.21.11,2.72-1.05,5.22-3.65,7.82-7.56,15.63-10.05,23.83-2.27,7.46-1.2,15.22,2.64,22.33.89,1.65,1.53,3.43,2.63,5.93-8.63.47-16.7.94-24.77,1.34-22.12,1.12-86.05,4.62-148.03,7.47-24.03,1.11-59.51,2.66-103.36,4.31-.51-.82-1.22-2.13-1.71-3.85-1.85-6.55.35-12.25,5.61-21.55,6.97-12.32,6.41-22.84-2.69-33.75-3.91-4.69-8.01-9.21-12.88-14.79Z"/>
    <path class="cls-1" d="m327.51,0c-13.07,20.98-26.14,41.96-39.21,62.94-88.07,7.98-176.13,15.97-264.2,23.95,8.21-15.25,16.42-30.5,24.64-45.75C141.66,27.42,234.59,13.71,327.51,0Z"/>
    <path class="cls-1" d="m420.34,90.86c.42.42,1.73,1.72,1.93,3.63.12,1.19-.27,2.39-1.06,3.86-6.78,12.61-13.42,25.29-20.08,37.96-3.06,5.82-6.06,11.67-9.09,17.52-10.73-10.48-13.44-22.25-5.4-35.85,5.32-9,6.08-12.23,7.19-15.63,2.24-6.84.1-18.59-21.65-39.76-10.83-14.33-21.96-23-27.47-20.37-1.74.83-3.9,2.86-5.05,4.97-1.93,3.53-3.85,7.08-5.94,10.52-6.91,11.43-17.67,13.62-27.55,2.24,10.57-18.13,21.23-36.44,31.57-54.19,46.35,47.75,80.04,82.53,82.59,85.1Z"/>
  </g>
  <g>
    <path class="cls-1" d="m288.7,170.78c-3.4,4.91-6.87,9.84-10.42,14.78-16.79,23.37-33.93,45.11-51.13,65.32-75.71-1.54-151.43-3.08-227.14-4.62,1.56-1.93,3.13-3.86,4.69-5.8,15.22-18.93,29.9-37.89,44.05-56.86,79.99-4.28,159.97-8.55,239.96-12.83Z"/>
    <path class="cls-1" d="m54.8,261.67c9.23-.21,18.17-.79,27.09-.54,54.51,1.48,109.04,2.75,163.52,5.02,14.39.6,26.15-2.01,35.05-14.73,3.9,4.88,7.47,9.02,10.68,13.42,4.36,5.99,8.37,12.23,12.69,18.26,2.33,3.26,2.96,6.16.68,9.9-2.87,4.68-5.35,9.65-7.48,14.72-3.58,8.55-5.29,17.34-.75,27.02-5.94-.23-11.19-.36-16.44-.66-15.22-.88-30.43-1.78-45.65-2.68-20.74-1.23-27.89-1.64-47.12-2.77-23.14-1.36-62.46-3.9-133.54-9.05-.04-.77-.05-1.92.12-3.29.72-5.64,4.15-9.29,5.07-10.9,4.51-7.97,10.14-15.85,6.85-25.52-1.78-5.22-5.56-9.76-8.47-14.59-.82-1.37-1.72-2.7-2.3-3.6Z"/>
    <path class="cls-1" d="m304.34,170.29c8.36,8.27,5.69,16.87,1.1,25.52-1.9,3.58-3.66,7.24-5.73,10.72-4.61,7.74-3.21,14.72,1.85,21.74,9.08,12.61,17.89,25.41,26.78,38.15.97,1.38,1.96,2.19,3.05,2.25,1.38.08,2.48-1.05,2.98-1.56,4.21-4.4,7.95-10.45,11.87-14.18,2.35-2.24,6.11-5.8,10.37-5.05,4.91.87,7.3,6.88,7.66,7.82-2.66,3.47-9.08,10.75-19.62,13.44-2.85.73-5.51.99-7.82,1.01,2.42-.13,5.65-.53,9.24-1.75,11.58-3.92,17.67-13.12,18.19-12.71.39.31-2.88,5.41-16.67,23.79-11.98,18.34-23.97,36.7-36.29,55.56-4.19-4.52-7.82-8.86-5.77-14.87,2.27-6.66,4.77-13.38,8.21-19.48,5.81-10.29,4.15-18.85-3.02-27.86-8.49-10.66-16.01-22.1-23.81-33.3-3.37-4.84-5.74-5.24-10.07-.98-4.55,4.48-8.98,9.09-13.56,13.53-3.39,3.28-7.23,3.13-11.24,1.11-4.65-2.34-5.17-4.1-2.17-8.27,11.97-16.61,23.97-33.19,35.95-49.8,5.43-7.53,10.82-15.1,16.28-22.61.65-.9,1.59-1.59,2.24-2.23Z"/>
  </g>
</svg>