<?xml version="1.0" encoding="UTF-8"?>
<svg id="Layer_1" data-name="Layer 1" xmlns="http://www.w3.org/2000/svg" viewBox="0 0 148.08 337.16">
  <defs>
    <style>
      .cls-1 {
        fill: #004174;
        stroke-width: 0px;
      }
    </style>
  </defs>
  <path class="cls-1" d="m29.98,287.45c0-6.59-.3-13.2.1-19.76.32-5.21-1.5-9.13-5.25-12.43-.46-.4-.85-.9-1.35-1.24-15.69-10.85-12.13-27.11-11.63-42.37.05-1.45,2.95-3.77,4.75-4,2.58-.33,2.83-.78,4.17-1.72,1.86-1.31,1.89-2.99,3.75-10.2,1.38-5.32,1.46-6.36,1.11-7.96-.28-1.26-3.53-2-5.53-2.71-4.97-1.76-10.76-2.32-14.82-5.27-7.71-5.6-7.27-17.9,3.29-24.04,24.09-14.01,48.35-27.71,72.49-41.63,13.92-8.03,27.88-16,41.57-24.41,11.1-6.82,19.74-4.25,24.28,5.74,2.99,6.57-.23,14.35-7.86,18.73-23.26,13.37-46.47,26.85-69.69,40.28-4.58,2.65-9.35,5.02-13.62,8.09-2.07,1.49-1.95,4.16-2.3,5.84-2.1,9.95-2.92,33.16,7.54,37.58,1.97.83,4.72,1.43,10.26,1.49,2.68.03,5.37-.19,8.03.04,5.69.48,7.23-2.2,10.14-7.31,5.55-9.75,4.1-19.45,3.5-28.97-.75-11.95,4.88-18.24,14.44-23.03,5.63-2.82,11.1-6,16.5-9.25,9.55-5.76,18.86-3.14,23.36,6.74,2.35,5.17-.18,12.78-5.89,16.53-4.41,2.9-9.17,5.28-13.68,8.03-1.52.93-3.84,2.15-4,3.46-.7,5.76.13,8.47,1.3,23.25.3,3.84.34,7.1,2.71,8.89,1.77,1.34,2.93,2,5.59,2.24,1.6.14,3.88,4.12,4.08,6.49.56,6.75.71,13.63,0,20.34-.35,3.33-2.14,7.42-4.67,9.46-11.18,9.04-15.47,20.16-13.8,34.47,1.04,8.94.26,18.1.17,27.16-.09,9.16-3.48,12.65-12.59,12.62-4.08-.01-6.76,1.23-9.17,4.75-11.8,17.17-32.45,18.93-45.41,1.57-3.43-4.59-6.72-6.8-12.56-6.42-6.34.41-9.04-2.55-9.2-8.86-.19-7.41-.04-14.82-.04-22.23h-.04Z"/>
  <path class="cls-1" d="m23.55,129.8c-7.83-.04-13.44-3.73-15.09-8.85-1.9-5.89.42-13.96,5.54-16.99,15.22-9,30.6-17.71,45.91-26.56,16.18-9.35,32.33-18.77,48.53-28.08,3.69-2.12,7.45-4.21,11.38-5.83,7.53-3.1,15.3-.48,18.32,5.83,3.77,7.88,1.03,16.01-6.57,20.39-23.23,13.38-46.4,26.89-69.61,40.31-10.73,6.2-21.43,12.45-32.3,18.39-2.22,1.21-5.12,1.19-6.11,1.4Z"/>
  <path class="cls-1" d="m126.74,12.75c.39,8.68-4.16,12.87-9.23,15.81-24.95,14.48-50.12,28.59-75.24,42.8-6.93,3.92-14.05,2.32-18.36-3.99-3.94-5.77-2.78-15.65,2.93-19.45,7.94-5.28,16.22-10.05,24.47-14.85,16.33-9.51,32.8-18.78,49.1-28.35,11.06-6.49,16.96-7.11,24.51,3.45,1.24,1.73,1.63,4.07,1.82,4.58Z"/>
</svg>