<?xml version="1.0" encoding="UTF-8"?>
<svg id="Layer_1" data-name="Layer 1" xmlns="http://www.w3.org/2000/svg" viewBox="0 0 135.15 331.04">
  <defs>
    <style>
      .cls-1 {
        fill: #004174;
        stroke-width: 0px;
      }
    </style>
  </defs>
  <path class="cls-1" d="m64.52,224.41c-15.59,5.51-22.71-5.08-27.8-19.98-4.47-13.06-11.52-24.43-20.93-35.14-23.87-27.14-19.97-69.48,7.02-93.24,27.1-23.86,68.28-22.53,92.93,2.99,25.99,26.91,25.49,67.21.93,94.83-9.3,10.46-15.7,24.18-20.92,37.4-4.35,11-10.21,15.21-21.4,13.21-2.35-.42-4.83-.06-9.81-.06ZM25.26,126.33c-.07,23.89,18.49,42.61,42.51,42.85,23.18.23,42.69-19.38,42.74-42.96.05-22.96-19.97-42.54-43.37-42.41-22.92.13-41.81,19.31-41.88,42.52Z"/>
  <path class="cls-1" d="m26.01,290.62h21.7c4.8,5.12,8.33,11.22,13.59,13.89,6.35,3.22,13.86,1.63,18.39-5.02,5.29-7.76,4.34-15.9-.98-23.17-2.81-3.83-6.93-6.71-10.45-10.02-8.1-7.61-13.42-16.5-13.27-28.77h21.74c5.72,6.07,11.07,12.11,16.8,17.78,18.31,18.11,19.4,48,1.94,64.1-12.57,11.59-27.37,14.63-43.25,8.59-16.41-6.24-24.73-18.96-26.21-37.39Z"/>
  <path class="cls-1" d="m112.57.09h17.85v75.17c-5.67-6.31-11.33-12.62-17-18.93-.29-18.75-.57-37.49-.86-56.24Z"/>
  <path class="cls-1" d="m5.6,0h17.61c-.25,19.02-.5,38.03-.74,57.05-5.62,6.53-11.24,13.07-16.87,19.6V0Z"/>
  <path class="cls-1" d="m80.9,126.27c.18,7.35-5.5,13.3-12.94,13.25-8.27-.06-13.05-4.38-13.22-12.65-.17-8.26,4.42-13.05,12.66-13.25,8.28-.21,12.52,4.68,13.51,12.66Z"/>
</svg>