<?xml version="1.0" encoding="UTF-8"?>
<svg id="Layer_1" data-name="Layer 1" xmlns="http://www.w3.org/2000/svg" viewBox="0 0 170.59 296.99">
  <defs>
    <style>
      .cls-1 {
        fill: #004174;
        stroke-width: 0px;
      }
    </style>
  </defs>
  <path class="cls-1" d="m126.93,196.3c-28.09-20.12-55.61-20.02-84.28.63-6.5-10.03-13.75-19.71-19.41-30.25C9.46,141.04-.12,113.94,0,84.38.18,41.49,32.22,6.21,75.48.65c40.74-5.23,80.42,21.42,91.88,61.47,5.3,18.54,3.46,36.82-1.07,55.1-6.61,26.69-17.47,51.39-34.41,73.22-1.6,2.06-3.37,3.99-4.96,5.85Zm28.65-75.76c-.38-11.18-4.4-20.9-15.14-26.46-9.92-5.14-19.49-3.18-28.27,3.1-12.32,8.8-17.67,26.34-12.59,40.52,6.34,17.69,25.78,23.8,40.96,12.72,9.92-7.24,14.66-17.28,15.04-29.89Zm-82.85,5.94c.03-11.26-5.08-22.16-13.84-28.81-6.79-5.16-14.35-7.77-22.97-5.7-21,5.05-28.07,32.55-13.28,51.58,8.12,10.45,20.98,14.84,32.04,10.94,10.92-3.85,18.02-14.85,18.05-28.01Zm-45.63-54.05c.2,2.66-.22,5.77.82,8.28.89,2.15,3.44,3.61,5.26,5.37,1.14-2.28,3.42-4.66,3.23-6.82-1.71-19.21,4.43-34.97,19.57-47.08,2.55-2.04,6.03-4.01,3.14-7.85-2.81-3.74-5.8-1.34-8.45.7-15.45,11.93-22.73,27.93-23.57,47.39ZM79.69,13.05c-3.7.84-6.4.85-8.31,2.08-1.63,1.05-2.35,3.52-3.47,5.36,1.76,1.03,3.43,2.67,5.29,2.91,2.08.27,4.63-.22,6.41-1.31,1.75-1.06,3.84-3.28,3.85-5,.01-1.48-2.7-2.98-3.77-4.04Z"/>
  <path class="cls-1" d="m37.93,243.71c0-2.66,0-5.32,0-7.98,0-24.85,11.99-39.81,36.58-44.36,16.86-3.12,32.61.03,45.85,11.72,8.25,7.28,12.46,16.5,12.36,27.62-.08,8.39-.13,16.77,0,25.16.21,12.84-5.08,22.89-15.09,30.66-18.07,14.02-47.44,13.95-65.25-.28-9.47-7.57-14.91-17.18-14.49-29.66.15-4.29.02-8.59.02-12.89Zm47.29,42.91c11.77-.4,22.44-3.79,30.62-12.88,8.26-9.17,8.24-21.33.17-30.59-14.7-16.89-46.05-17.2-61.07-.6-8.93,9.87-8.91,22.31.29,31.94,8.09,8.47,18.42,11.71,29.98,12.13Zm-12.43-86.42v20.02h24.46v-20.02h-24.46Z"/>
  <path class="cls-1" d="m146.49,121.52c.05,13.28-9.76,24.32-21.59,24.29-10.31-.03-18-8.43-18.14-19.82-.16-13.14,9.63-24.51,21.3-24.74,10.29-.19,18.39,8.71,18.44,20.26Z"/>
  <path class="cls-1" d="m63.88,125.73c-.16,11.59-8.22,20.27-18.67,20.1-11.49-.19-21.44-11.33-21.46-24.03-.02-11.44,8.11-20.52,18.37-20.53,11.53,0,21.93,11.69,21.76,24.46Z"/>
</svg>