<?xml version="1.0" encoding="UTF-8"?>
<svg id="Layer_1" data-name="Layer 1" xmlns="http://www.w3.org/2000/svg" viewBox="0 0 221.94 335.98">
  <defs>
    <style>
      .cls-1 {
        fill: #004174;
        stroke-width: 0px;
      }
    </style>
  </defs>
  <path class="cls-1" d="m91.17,305.64V30.62h130.78v275.02H91.17Z"/>
  <path class="cls-1" d="m86.75,168.72c0,44.96,0,89.91,0,134.87,0,9.13-.16,9.29-9.26,9.3-22.96.02-45.92-.22-68.87.13C1.88,313.12-.01,310.75,0,304.28.15,213.66.1,123.03.12,32.4c0-9.07.24-9.27,9.24-9.28,22.96-.02,45.92.2,68.87-.13,6.68-.1,8.64,2.2,8.61,8.71-.22,45.67-.11,91.34-.11,137.02h.02Zm-21.39,30.12c0,31.32,0,62.64,0,93.96,0,3.38-.49,6.78,4.73,6.95,5.52.18,5.38-3.17,5.38-7.01-.04-62.16-.02-124.32-.03-186.49,0-3.56.75-7.28-5.06-7.26-5.83.02-5.01,3.8-5.01,7.32-.02,30.84,0,61.68,0,92.53Zm10.08-138.66c0-6.19.37-12.42-.22-18.56-.18-1.9-2.98-3.55-4.58-5.31-1.75,1.61-4.96,3.16-5.02,4.83-.43,12.37-.41,24.77-.03,37.14.05,1.57,3.24,4.47,4.55,4.25,1.96-.33,4.86-2.74,5.05-4.52.64-5.89.24-11.88.25-17.84Z"/>
  <path class="cls-1" d="m10.79,16.5c1.78-1.31,3.54-3.73,5.33-3.76,18.11-.29,36.22-.29,54.33-.02,1.88.03,3.73,2.36,5.6,3.62-.35.69-.7,1.38-1.05,2.06H11.92c-.38-.63-.75-1.27-1.13-1.9Z"/>
  <path class="cls-1" d="m76.05,319.66c-1.87,1.25-3.71,3.57-5.6,3.6-18.11.28-36.22.28-54.32,0-1.79-.03-3.55-2.45-5.32-3.75.38-.65.75-1.3,1.13-1.96h62.52c.53.7,1.07,1.41,1.6,2.11Z"/>
  <path class="cls-1" d="m54.81,8.05h-23c-1.34-5.14-.92-8.47,5.64-7.97,3.8.29,7.65.32,11.44-.01,6.18-.55,7.61,2.19,5.92,7.98Z"/>
  <path class="cls-1" d="m54.81,327.94c1.58,5.78.24,8.47-5.61,7.99-3.79-.32-7.65-.31-11.44,0-6.14.51-7.63-2.19-5.87-7.99h22.92Z"/>
</svg>