<?xml version="1.0" encoding="UTF-8"?>
<svg xmlns="http://www.w3.org/2000/svg" viewBox="0 0 288 240.15">
  <defs>
    <style>
      .cls-1 {
        isolation: isolate;
      }

      .cls-2 {
        mix-blend-mode: overlay;
      }

      .cls-3 {
        fill: #004174;
        stroke-width: 0px;
      }
    </style>
  </defs>
  <g class="cls-1">
    <g id="Layer_1" data-name="Layer 1">
      <g class="cls-2">
        <polygon class="cls-3" points="77.83 32.71 117.66 57.2 117.66 44.3 98.81 32.71 77.83 32.71"/>
        <polygon class="cls-3" points="190.84 32.71 170.99 44.91 170.99 57.81 211.81 32.71 190.84 32.71"/>
        <rect class="cls-3" y="157.22" width="48.98" height="73.39"/>
        <rect class="cls-3" x="239.02" y="157.22" width="48.98" height="73.39"/>
        <path class="cls-3" d="m222.49,147.68h-5.6c-8.54,0-16.14-5.44-18.89-13.53l-7.35-21.63c-.5-1.46-1.36-2.69-2.36-3.78h-87.94c-1,1.09-1.86,2.32-2.36,3.78l-7.35,21.63c-2.75,8.09-10.34,13.53-18.89,13.53h-5.6c-2.26,0-4.3.85-5.89,2.2v88.07c1.6,1.35,3.64,2.2,5.89,2.2h156.33c1.83,0,3.53-.55,4.96-1.48v-89.52c-1.43-.93-3.13-1.48-4.96-1.48Z"/>
        <polygon class="cls-3" points="106.79 87.45 106.79 98.44 117.66 98.44 170.99 98.44 181.87 98.44 181.87 87.45 170.99 87.45 117.66 87.45 106.79 87.45"/>
        <path class="cls-3" d="m149.82,57.08v-24.38h-10.99v24.38c0,3.03,2.46,5.49,5.49,5.49s5.49-2.46,5.49-5.49Z"/>
        <path class="cls-3" d="m122.94,43.01v38.23h42.77v-38.23h-10.98v14.08c0,5.73-4.67,10.4-10.4,10.4s-10.4-4.67-10.4-10.4v-14.08h-10.98Z"/>
        <path class="cls-3" d="m227.58,0H61.07c-8.32,0-15.06,6.15-15.06,13.73s6.74,13.73,15.06,13.73h166.51c8.32,0,15.06-6.15,15.06-13.73s-6.74-13.73-15.06-13.73Z"/>
      </g>
    </g>
  </g>
</svg>