<?xml version="1.0" encoding="UTF-8"?>
<svg id="Layer_1" data-name="Layer 1" xmlns="http://www.w3.org/2000/svg" viewBox="0 0 341.83 241.08">
  <defs>
    <style>
      .cls-1 {
        fill: #fff;
      }

      .cls-1, .cls-2 {
        stroke-width: 0px;
      }

      .cls-2 {
        fill: #004174;
      }
    </style>
  </defs>
  <path class="cls-2" d="m0,240.29c7.86-10.86,9.75-22.96,8.04-35.63-1.16-8.6-2.93-17.11-4.43-25.66-2.09-11.95-3.89-23.89-1-36,4.13-17.34,14.25-29.42,30.88-36.16,38.67-15.68,77.23-31.59,115.9-47.27,45.93-18.62,92.25-36.32,137.73-55.97,22.98-9.93,40.54,2.22,48.84,17.51,10.24,18.85,8.1,42.4-14.45,55.83-77.11,45.92-153.49,93.05-230.02,139.95-16.34,10.01-32.78,11.43-50.33,4-2-.85-5.31-.29-7.31.85-10.96,6.23-21.69,12.85-32.5,19.34-.45-.26-.9-.53-1.35-.79Zm108.3-91.34c75.99-39.73,152.15-79.54,228.83-119.63-2.99-5.08-5.73-9.76-8.58-14.61-78.71,37.12-156.75,73.92-234.32,110.5,4.83,8.14,9.23,15.57,14.08,23.74ZM3.71,160.07c.84,22.03,11.37,41.55,32.25,54.75,29.18,18.45,64.47,4.54,71.47-28.36,5.5-25.88-3.01-47.83-22.54-65.25-11.68-10.42-25.65-16.29-41.53-13.72-24.75,4.01-39.72,23.37-39.66,52.59Z"/>
  <path class="cls-1" d="m108.3,148.95c-4.84-8.17-9.25-15.6-14.08-23.74C171.79,88.63,249.84,51.83,328.55,14.71c2.85,4.85,5.6,9.53,8.58,14.61-76.69,40.09-152.84,79.9-228.83,119.63Z"/>
  <path class="cls-2" d="m3.71,160.07c-.06-29.22,14.9-48.58,39.66-52.59,15.88-2.57,29.85,3.3,41.53,13.72,19.53,17.42,28.04,39.37,22.54,65.25-7,32.91-42.29,46.81-71.47,28.36-20.88-13.2-31.41-32.72-32.25-54.75Zm90.27,9.56c.31-11.87-4.62-23.17-13.39-32.67-9.45-10.23-21.23-15.14-35.4-13.54-14.21,1.6-27.01,15.55-27.98,31.87-1.2,20.03,6.62,36.06,23.84,46.69,11.35,7.01,23.66,8.42,35.59,1.52,12.3-7.1,17.45-18.55,17.34-33.88Z"/>
  <path class="cls-2" d="m93.99,169.63c.12,15.33-5.04,26.77-17.34,33.88-11.93,6.9-24.24,5.49-35.59-1.52-17.22-10.63-25.04-26.66-23.84-46.69.97-16.32,13.77-30.27,27.98-31.87,14.18-1.6,25.95,3.31,35.4,13.54,8.77,9.5,13.7,20.79,13.39,32.67Zm-34.33,33.15c13.33.09,23.49-7.18,27.86-19.93,7.12-20.75-4.79-45.67-25.35-53.05-17.27-6.2-34.27,1.97-39.02,19.69-1.69,6.3-1.81,13.49-.76,19.96,3,18.42,20.11,33.22,37.27,33.33Z"/>
  <path class="cls-1" d="m59.66,202.78c-17.16-.11-34.27-14.91-37.27-33.33-1.05-6.47-.93-13.66.76-19.96,4.75-17.72,21.75-25.89,39.02-19.69,20.56,7.38,32.47,32.3,25.35,53.05-4.37,12.75-14.53,20.02-27.86,19.93Z"/>
</svg>