<?xml version="1.0" encoding="UTF-8"?>
<svg id="Layer_1" data-name="Layer 1" xmlns="http://www.w3.org/2000/svg" viewBox="0 0 383.31 239.77">
  <defs>
    <style>
      .cls-1 {
        fill: #004174;
        stroke-width: 0px;
      }
    </style>
  </defs>
  <path class="cls-1" d="m154.69,109.31c-12.89,4.47-25.66,9.6-38.86,13.16-5.75,1.55-12.38.05-18.58-.45-1.14-.09-2.63-1.84-3.1-3.13-2.85-7.86-5.41-15.82-8.16-23.72-.78-2.25-.11-3.44,1.52-5.32,8.25-9.51,19.39-13.4,30.82-16.99,6.27-1.97,12.43-4.27,18.63-6.44,1.79-.63,3.38-1.2,4.25,1.37,4.47,13.3,9.03,26.58,13.53,39.87.13.38-.02.85-.05,1.65Z"/>
  <path class="cls-1" d="m303.38,75.02c-.56-1.26-.96-2.04-1.25-2.85-7.41-21.32-14.76-42.65-22.26-63.94-.99-2.81-.39-4.13,2.37-4.93,2.87-.83,5.63-2.03,8.5-2.84,6.39-1.8,13.02,1.91,14.99,7.89,5.18,15.76,10.83,31.36,16.21,47.05,2.37,6.9-.73,13.3-7.5,15.78-3.5,1.28-7.04,2.46-11.06,3.85Z"/>
  <path class="cls-1" d="m86.74,114.69c-10.21,3.54-19.97,6.93-30.64,10.63,1.18-4.79,2.12-8.87,3.23-12.9.19-.69.99-1.47,1.69-1.72,7.12-2.55,14.28-5.01,21.71-7.58,1.38,3.97,2.62,7.54,4.02,11.57Z"/>
  <path class="cls-1" d="m27.81,122.87c-2.37,14.14-3.85,15.98-12.82,16.12,1.91-7.2,1.07-16.5,12.82-16.12Z"/>
  <path class="cls-1" d="m55.6,113.04c-1.1,4.48-1.31,9.23-3.47,12.77-1.46,2.39-5.69,3.08-8.89,4.62-1.06-10.63,2.39-15.48,12.36-17.4Z"/>
  <path class="cls-1" d="m41.35,117.79c-.49,12.22-2.89,15.41-12.17,16.56.73-12.45,1.92-14.11,12.17-16.56Z"/>
  <path class="cls-1" d="m0,138.91c1.13-8.25,7.05-10.2,14.49-11.71-1.26,4.71-2.24,9.06-3.69,13.25-.28.81-2.58,1.58-3.68,1.31-2.5-.61-4.83-1.89-7.12-2.85Z"/>
  <path class="cls-1" d="m366.09,154.84c-2.02-5.61-7.36-8.21-12.61-5.84-4.6,2.07-6.44-.14-8.53-3.34-12.11-18.59-24.25-37.16-36.43-55.71-5.1-7.76-9.28-15.86-12.18-24.78-5.96-18.35-12.55-36.49-18.87-54.72-.58-1.67-1.16-3.33-1.85-5.33-1.53.35-2.43.47-3.26.76-40,13.87-79.99,27.73-119.97,41.66-5.68,1.98-7.69,6.34-5.72,12.04,6,17.39,12.33,34.67,17.96,52.19,2.64,8.23,8.5,9.76,15.16,7.35,17.3-6.26,34.74-12.14,52.12-18.17l5.15-1.79c.48,1.21.8,1.85,1,2.53,3.95,13.41,10.44,17.74,24.33,16.44,5.12-.48,10.28-.59,16.08-.91-1.95,8.51,2.52,12.1,9.31,14.57,3.72,1.35,4.66,4.92,4.51,8.91-.3,8.09.65,9.58,8.02,12.26,5.48,1.99,6.99,6.25,7.79,11.62-7.82,2.71-15.34,5.64-23.06,7.9-5.26,1.54-9.29,7.2-7.05,13.82,5.22,15.44,10.52,30.86,16.06,46.2,2.27,6.27,7.56,8.62,13.59,6.54,22.91-7.9,45.8-15.85,68.68-23.84,5.51-1.92,8.28-6.89,6.42-12.46-5.36-16.03-10.91-32-16.64-47.89Zm-102.96-45.6c-.01,1.37-2.33,3.42-3.93,3.84-1.06.28-3.72-1.61-3.96-2.85-.91-4.8-1.79-9.79-1.4-14.6.34-4.12,4.78-3.38,8.21-4.52.45,6.36,1.13,12.25,1.08,18.13Z"/>
</svg>