<?xml version="1.0" encoding="UTF-8"?>
<svg id="Layer_1" data-name="Layer 1" xmlns="http://www.w3.org/2000/svg" viewBox="0 0 278.66 345.22">
  <defs>
    <style>
      .cls-1 {
        fill: #004174;
        stroke-width: 0px;
      }
    </style>
  </defs>
  <path class="cls-1" d="m278.66,16c-7.73,21.24-15.47,42.47-23.17,63.71-2.28,6.3-4.45,12.64-6.63,18.87,7.15,5.08,8.59,15.74,2.86,22.38-1.27,1.47-4.47,2.5-6.35,2.03-23.91-6-47.73-12.35-71.6-18.51-4.84-1.25-6.22-4.33-5.09-8.74,4.02-15.61,3.08-16.15,18.83-11.94,8.02,2.14,16.04,4.25,24.48,6.49,9.36-26.13,18.48-51.59,27.75-77.45-5.08-1.88-6-5.43-3.8-9.83,2.33-4.66,6.12-2.75,9.61-1.85,8.28,2.14,16.59,4.19,24.83,6.5,2.86.8,5.54,2.27,8.3,3.44v4.9Z"/>
  <path class="cls-1" d="m172.09,245.09c0,29.6,0,59.21,0,88.81,0,9.17-2.01,11.26-11.02,11.29-14.9.05-29.81.04-44.71-.01-7.83-.03-10.34-2.49-10.35-10.19-.03-59.81-.02-119.63,0-179.44,0-7.86,2.32-10.22,10.2-10.25,15.11-.06,30.22-.04,45.32,0,8.48.02,10.55,2.04,10.56,10.39.03,29.8,0,59.61.01,89.41Zm-24.04,43.89v-115.8h-38.03v115.8h38.03Zm17.18-28.19c.1,0,.2,0,.3,0,0-14.06.03-28.12-.01-42.19-.02-7.74-.04-15.49-.38-23.23-.07-1.66-1.57-3.26-2.41-4.89-.97,1.68-2,3.32-2.88,5.05-.25.49-.04,1.2-.04,1.82,0,42.2,0,84.41,0,126.61,0,1.43-.29,2.98.17,4.24.4,1.09,1.68,1.86,2.58,2.78.84-.97,2.14-1.83,2.43-2.94.44-1.73.23-3.64.24-5.47,0-20.59,0-41.19,0-61.78Zm-5.4-91.49s.02,0,.02,0c0,3.85-.22,7.73.14,11.55.1,1.09,1.85,2.02,2.85,3.03.78-1.01,2.21-2,2.24-3.03.19-7.5.22-15.01-.02-22.51-.04-1.17-1.67-2.28-2.57-3.42-.89,1.14-2.43,2.23-2.54,3.44-.34,3.62-.12,7.29-.12,10.94Z"/>
  <path class="cls-1" d="m76.23,72.29c.69-3.03,1.44-6.29,2.35-10.23,9.55,2.44,18.55,4.71,27.54,7.03,3.94,1.02,7.8,2.5,11.79,3.07,2.61.37,5.4-.61,8.13-.79,1.58-.1,3.23-.05,4.76.33,7.3,1.82,14.63,3.57,21.8,5.8,2.12.66,3.64,3.06,5.69,4.2,2.74,1.52,5.72,2.58,8.88,3.97-.91,3.3-1.82,6.57-2.52,9.12-6.41.42-12.09.79-18.55,1.21-.15,3.11-.32,6.44-.51,10.22h-12.5c-.1-1.96-.51-3.97-.25-5.89.82-6.07-2.49-7.72-7.3-11.16-14.89-10.62-33.2-9.28-49.3-16.9Z"/>
  <path class="cls-1" d="m157.42,118c2.38.78,4.13,1.36,5.89,1.94.02.45.04.91.06,1.36-1.86.72-3.71,1.44-5.78,2.24-.12,2.36-.25,4.76-.4,7.63h-36.25c-.15-2.76-.28-5.15-.42-7.69-1.74-.69-3.45-1.36-6.97-2.76,3.33-1.29,4.98-1.93,6.94-2.68-.77-6.16,2.34-7.98,8.27-7.61,7.12.45,14.3.39,21.43,0,5.56-.3,8.26,1.49,7.22,7.56Z"/>
  <path class="cls-1" d="m0,49.98c.41-2.16.71-3.71,1.14-5.96,24.53,6.4,48.67,12.7,73.08,19.07.05,3.4.5,6.56-4.6,5.21C46.61,62.21,23.58,56.18,0,49.98Z"/>
  <path class="cls-1" d="m163.55,140.97h-49.65c-.35-.57-.7-1.15-1.05-1.72,1.87-1.22,3.72-3.45,5.61-3.49,13.61-.29,27.24-.27,40.85.04,1.75.04,3.45,2.26,5.17,3.48l-.93,1.7Z"/>
</svg>