<?xml version="1.0" encoding="UTF-8"?>
<svg id="Layer_1" data-name="Layer 1" xmlns="http://www.w3.org/2000/svg" viewBox="0 0 279.28 242.03">
  <defs>
    <style>
      .cls-1 {
        fill: #004174;
        stroke-width: 0px;
      }
    </style>
  </defs>
  <path class="cls-1" d="m231.98,161.21c-1.52-9.98-2.69-20.03-4.75-29.9-4.35-20.93-11.23-41.04-21.5-59.84-14.9-27.28-35.11-49.13-64.31-61.48-4.87-2.06-9.91-3.7-16.01-5.96,1.96-1.07,2.9-1.97,3.92-2.08,7.66-.78,15.4-2.36,22.99-1.85,11.73.79,22.83,4.65,33.19,10.43,14.1,7.87,26.21,17.9,35.02,31.6,17.75,27.58,23.63,58.43,24.89,90.54.32,8.09.44,16.19.65,24.28.61,0,1.23,0,1.84,0,1.58-19.05,2.08-38.11.03-57.27-2.07-19.37-8.21-37.46-16.87-54.87,10.01,9.25,17.2,20.3,22.91,32.34,10.58,22.31,14.26,46.01,13.23,70.47-.32,7.71.53,15.94-5.41,22.27,2.78,2.57,5.26,5.03,7.93,7.27,1.62,1.35,4.19,1.95,5.2,3.59,7.54,12.23,4.46,28.12-2.98,38.18-9.18,12.42-22.54,17.53-36.76,20.31-15.72,3.07-31.77,3.72-47.69,1.32-14.84-2.24-29.79-4.29-44.3-7.95-12.15-3.07-23.74-8.33-35.55-12.71-.58-.22-.82-1.34-1.35-2.27,11.92,1.28,23.36,2.56,34.82,3.74,24.7,2.53,49.28,2.09,73.52-3.87,15.61-3.84,29.74-10.42,39.75-23.66,2.01-2.66,3.13-5.98,4.66-9-.62-.47-1.24-.94-1.86-1.4-2.29,1.68-4.78,3.13-6.83,5.06-10.87,10.21-24.02,16.05-38.17,19.69-18.64,4.79-37.74,6.17-56.89,5.3-36.03-1.64-70.95-8.4-103.42-24.93-22.92-11.67-41.54-27.48-49.07-53.26-4.83-16.5-3.68-32.5,5.72-47.38,1.89-3,4.03-5.85,6.06-8.76-2.94,18.82.23,35.88,8.52,52.2.87-1.07,1.1-2.09,1.06-3.1-.21-5.18-.8-10.37-.69-15.54.63-29.41,9.51-55.99,28.83-78.4,15.67-18.18,35.47-27.56,59.97-24.36,12.48,1.63,23.91,5.87,34.53,13.09,11.14,7.58,21.7,15.56,30.35,25.93,24.85,29.75,39.17,64.29,46.37,102.05,1.03,5.38,1.73,10.82,2.64,16.59,4.72-.41,6.42-2.55,5.83-6.41Z"/>
</svg>