<?xml version="1.0" encoding="UTF-8"?>
<svg id="Layer_1" data-name="Layer 1" xmlns="http://www.w3.org/2000/svg" viewBox="0 0 184.78 308.36">
  <defs>
    <style>
      .cls-1 {
        fill: #004174;
        stroke-width: 0px;
      }
    </style>
  </defs>
  <path class="cls-1" d="m160.49,205.47c-5.32-9.08-10.45-18.28-15.65-27.43-3.37-5.95-3.82-6.75-8.97-5.21-.79.25-1.71.55-2.77.89-23.59-40.87-47.21-81.81-70.82-122.71q6.4-4.62,2.47-11.25c-.07-.14-.15-.26-.23-.4-3.07-5.15-3.67-5.33-8.69-2.44-3.36,1.93-6.8,3.74-10.03,5.86-2.49,1.64-4.19,1.42-6.4-.71-7.88-7.66-15.99-15.07-23.89-22.48-1.75,1.01-3.51,2.04-5.26,3.06,3.1,17.29,5.37,29.44,6.32,32.5.16.52.71,2.23-.04,3.8-.4.85-1.16,1.55-2.45,2.16-3.74,1.84-7.18,4.26-10.89,6.18-3.63,1.86-3.93,4.16-1.99,7.52,15.74,27.17,31.4,54.39,47.1,81.59,14.24,24.66,28.51,49.28,42.69,73.97.71,1.25,1.27,3,.99,4.32-2.22,10.51-5.3,20.66-12.11,29.31-3.63,4.63-7.08,9.4-10.37,14.28-5.37,7.96-6.11,16.67-3.6,25.8.7,2.56,1.71,4.58,5.3,4,.08-7.73,2.62-14.39,7.73-19.96,2.62-2.86,5.23-5.71,8-8.43,10.14-9.97,17.21-21.78,21.61-35.28.36-1.12.75-2.63,1.62-3.15,7.26-4.37,14.65-8.55,21.84-12.69,1.52,1.77,2.84,3.53,3.88,5.32.01,5.66.01,11.32,0,16.98-1.21,2.18-1.77,4.75-2.47,7.19-1.26,4.33-.33,7.84,2.45,9.89.75.58,1.66,1.03,2.69,1.37,4.37,1.45,8.38-.85,10.28-6.11,2.29-6.4,4.84-12.76,6.41-19.33.75-3.12.21-7-1.01-10.02-1.89-4.67-4.86-8.91-7.59-13.67,4.07-2.4,7.81-4.84,11.77-6.85,3.85-1.97,4.18-4.32,2.11-7.86ZM24.33,53.61c-1.42-6.08-2.77-11.71-4.1-17.35.33-.14.66-.27.99-.4,4.12,3.88,8.25,7.75,12.88,12.13-3.37,1.93-6.34,3.64-9.77,5.62Zm81.08,137.08c-23.85-41.27-47.36-81.95-71.12-123.03,7.06-4.08,13.84-8,21.25-12.28,23.68,41.02,47.2,81.81,70.93,122.94-7.06,4.15-13.78,8.1-21.06,12.37Z"/>
  <path class="cls-1" d="m160.49,205.47c-5.32-9.08-10.45-18.28-15.65-27.43-3.37-5.95-3.82-6.75-8.97-5.21-.79.25-1.71.55-2.77.89-23.59-40.87-47.21-81.81-70.82-122.71q6.4-4.62,2.47-11.25c-.07-.14-.15-.26-.23-.4-3.07-5.15-3.67-5.33-8.69-2.44-3.36,1.93-6.8,3.74-10.03,5.86-2.49,1.64-4.19,1.42-6.4-.71-7.88-7.66-15.99-15.07-23.89-22.48-1.75,1.01-3.51,2.04-5.26,3.06,3.1,17.29,5.37,29.44,6.32,32.5.16.52.71,2.23-.04,3.8-.4.85-1.16,1.55-2.45,2.16-3.74,1.84-7.18,4.26-10.89,6.18-3.63,1.86-3.93,4.16-1.99,7.52,15.74,27.17,31.4,54.39,47.1,81.59,14.24,24.66,28.51,49.28,42.69,73.97.71,1.25,1.27,3,.99,4.32-2.22,10.51-5.3,20.66-12.11,29.31-3.63,4.63-7.08,9.4-10.37,14.28-5.37,7.96-6.11,16.67-3.6,25.8.7,2.56,1.71,4.58,5.3,4,.08-7.73,2.62-14.39,7.73-19.96,2.62-2.86,5.23-5.71,8-8.43,10.14-9.97,17.21-21.78,21.61-35.28.36-1.12.75-2.63,1.62-3.15,7.26-4.37,14.65-8.55,21.84-12.69,1.52,1.77,2.84,3.53,3.88,5.32,3.01,5.18,3.69,10.55.12,16.74-.04.07-.08.15-.12.23-1.21,2.18-1.77,4.75-2.47,7.19-1.26,4.33-.33,7.84,2.45,9.89.75.58,1.66,1.03,2.69,1.37,4.37,1.45,8.38-.85,10.28-6.11,2.29-6.4,4.84-12.76,6.41-19.33.75-3.12.21-7-1.01-10.02-1.89-4.67-4.86-8.91-7.59-13.67,4.07-2.4,7.81-4.84,11.77-6.85,3.85-1.97,4.18-4.32,2.11-7.86ZM24.33,53.61c-1.42-6.08-2.77-11.71-4.1-17.35.33-.14.66-.27.99-.4,4.12,3.88,8.25,7.75,12.88,12.13-3.37,1.93-6.34,3.64-9.77,5.62Zm81.08,137.08c-23.85-41.27-47.36-81.95-71.12-123.03,7.06-4.08,13.84-8,21.25-12.28,23.68,41.02,47.2,81.81,70.93,122.94-7.06,4.15-13.78,8.1-21.06,12.37Z"/>
  <path class="cls-1" d="m30.53,243.15c10.92,4.97,20.57.8,30.45-3.23,7.66-3.12,15.71-5.27,23.59-7.86.47.44.93.89,1.4,1.33-1.52,5.36-3.01,10.73-4.61,16.06-.14.45-.89.91-1.44,1.03-10.08,2.18-20.1,4.84-30.28,6.26-7.14,1-13.03-3.27-18.21-7.86-1.13-1-1.36-3.02-2-4.57l1.09-1.17Z"/>
  <g>
    <path class="cls-1" d="m158.38,213.34c-3.96,2.01-7.7,4.45-11.77,6.85,2.73,4.77,5.7,9,7.59,13.67,1.22,3.01,1.77,6.89,1.01,10.02-1.58,6.58-4.12,12.93-6.41,19.33-1.89,5.26-5.91,7.56-10.28,6.11-1.03-.34-1.93-.79-2.69-1.37.01-5.7.03-11.39.01-17.09.01-5.66.01-11.32,0-16.98.01-20.35.01-40.71.01-61.05,5.15-1.55,5.6-.74,8.97,5.21,5.19,9.15,10.33,18.35,15.65,27.43,2.07,3.55,1.74,5.89-2.11,7.86Z"/>
    <path class="cls-1" d="m184.78,110.7v188.72c0,3.67-.7,4.74-4.19,6.1-4.51,1.77-9.25,2.32-14.02,2.62-7.81.49-15.59.3-23.24-1.58-1.62-.41-3.21-1.05-4.73-1.74-1.9-.88-2.78-2.34-2.78-4.59.01-7.71.01-15.43.01-23.14.04.01.07.03.11.04,1.69.56,3.4.84,5.1.84,6.91,0,12.84-4.59,15.5-11.97.45-1.29.93-2.59,1.4-3.86,1.92-5.23,3.9-10.63,5.27-16.33,1.1-4.56.58-10.18-1.4-15.02-1.12-2.78-2.51-5.33-3.95-7.77,1.42-.85,2.84-1.64,4.23-2.36,3.89-1.99,6.38-4.74,7.4-8.18,1.01-3.49.37-7.25-1.93-11.17-3.96-6.77-7.89-13.73-11.7-20.47l-3.89-6.88c-2.79-4.93-5.69-10.03-12.7-10.03-.75,0-1.49.07-2.23.18l-1.18-2.04v-51.35h9.02c.52-2.89,2.25-4.34,5.22-4.33.23-3.23.48-6.36.7-9.48,2.15-30.73,4.3-61.46,6.43-92.19.34-4.91.33-4.91,5.23-4.6.12,0,.23.05.62.16,2.47,35.24,4.96,70.59,7.44,105.89,4.03,1.12,4.04,1.14,5.38,4.54h8.88Z"/>
  </g>
</svg>