<?xml version="1.0" encoding="UTF-8"?>
<svg id="Layer_1" data-name="Layer 1" xmlns="http://www.w3.org/2000/svg" viewBox="0 0 232.25 306.22">
  <defs>
    <style>
      .cls-1 {
        fill: #004174;
        stroke-width: 0px;
      }
    </style>
  </defs>
  <path class="cls-1" d="m151.66,18.59v70.99h-71.02V18.59h71.02Z"/>
  <path class="cls-1" d="m80.64,99h70.95v71.04h-70.95v-71.04Z"/>
  <path class="cls-1" d="m80.64,179.51h71v71.05h-71v-71.05Z"/>
  <path class="cls-1" d="m71.17,99.08v70.94H.18v-70.94h70.99Z"/>
  <path class="cls-1" d="m232.15,99.06v70.93h-71.05v-70.93h71.05Z"/>
  <path class="cls-1" d="m.14,179.53h71.02v71.03c-.66.03-1.27.09-1.89.09-12.21,0-24.42.03-36.64,0-17.83-.04-32.26-14.07-32.54-31.88-.2-12.67-.05-25.35-.05-38.02,0-.34.05-.68.09-1.21Z"/>
  <path class="cls-1" d="m161.13,179.51h70.98c.04.59.11,1.09.11,1.59,0,12.21.07,24.43-.01,36.64-.11,16.55-10.98,29.44-27.26,32.44-1.53.28-3.1.43-4.66.44-12.56.04-25.12.02-37.68.02-.45,0-.9-.06-1.48-.11v-71.02Z"/>
  <path class="cls-1" d="m71.13,89.57H.17c-.04-.57-.12-1.07-.12-1.57,0-12.39-.1-24.77.02-37.16.16-16.2,11.43-29.28,27.39-31.96,1.76-.3,3.57-.41,5.36-.41,12.21-.03,24.42-.02,36.64-.02.51,0,1.02.05,1.68.08v71.04Z"/>
  <path class="cls-1" d="m161.12,18.45c.82,0,1.5,0,2.18,0,11.92,0,23.84,0,35.77,0,18.65,0,32.98,14.09,33.13,32.72.1,12.27.02,24.54.02,36.81,0,.5-.07,1.01-.11,1.61h-70.99V18.45Z"/>
  <path class="cls-1" d="m232.13,255.36v13.73H.19v-13.73h231.95Z"/>
  <path class="cls-1" d="m232.08,306.22H.16v-13.71h231.93v13.71Z"/>
  <path class="cls-1" d="m90.91,13.7V0h50.45v13.7h-50.45Z"/>
  <path class="cls-1" d="m123.56,271.63v18.34h-14.85v-18.34h14.85Z"/>
  <path class="cls-1" d="m21.96,271.64v18.28H7.15v-18.28h14.81Z"/>
  <path class="cls-1" d="m210.37,271.58h14.75v18.34h-14.75v-18.34Z"/>
</svg>