<?xml version="1.0" encoding="utf-8"?>
<!-- Generator: Adobe Illustrator 27.8.1, SVG Export Plug-In . SVG Version: 6.00 Build 0)  -->
<svg version="1.1" id="Layer_1" xmlns="http://www.w3.org/2000/svg" xmlns:xlink="http://www.w3.org/1999/xlink" x="0px" y="0px"
	 viewBox="0 0 779 768" style="enable-background:new 0 0 779 768;" xml:space="preserve">
<style type="text/css">
	.st0{fill:#004174;}
	.st1{fill:#FFFFFF;}
</style>
<path class="st0" d="M296.4,99.9c-0.1-1.1-0.2-1.8-0.2-2.4c0-12.1,0.1-24.2,0.1-36.2c0-3.2,0-3.5,3.2-3.1
	c11.9,1.6,23.8,1.7,35.8,2.5c6,0.4,6.7-0.2,7.2-6.2c0.1-1.5,0.3-3,0.5-4.5c0.2-1.8,1.3-2.6,3-2.6c1.6,0,3.2,0,4.8,0c13,0,26,0,39,0
	c13.9,0,23.3,7,29.4,19c1.2,2.3,1.8,4.9,2.5,7.5c1.6,6.5,2.9,13,4.6,19.4c1.5,5.6,3.2,11.2,4.8,16.8c0.4,1.3,0.4,2.7,0.6,4.1
	c0.3,2.2,1.6,3.5,3.8,3.8c5.6,0.7,10.4,3.3,15.4,5.7c5.2,2.6,10.5,5.1,15.5,8.2c11.7,7.3,22.4,15.8,29.7,27.8c2.1,3.4,3.9,7,6,10.4
	c0.6,1,1.7,1.8,2.8,2.3c1.2,0.7,2.6,0.8,3.9,1.5c7.8,4,8.8,8.3,7.1,16.6c-0.8,3.8-1.1,7.5-1.1,11.2c0,7.8-0.1,15.6-0.1,23.4
	c0,16,0.2,32,0.2,48c0,47.4,0,94.8,0,142.3c0,69,0,138.1,0,207.1c0,23,0,46,0.1,69c0,5.3-1,10.3-2.6,15.2c-0.8,2.6-2.4,5-4,7.2
	c-1.9,2.6-4,5-6.4,7.1c-2,1.7-4.3,3.1-6.7,4.1c-5.4,2.2-10.9,3.9-17,3.8c-16-0.2-32,0-48,0c-47.1,0-94.3-0.1-141.4,0
	c-9.3,0-17.1-3.5-24.2-9.1c-4.2-3.3-7-7.7-9.1-12.3c-2.1-4.4-2.8-9.4-2.7-14.5c0.1-34.8,0-69.5,0-104.3c0-32.1,0-64.2,0-96.3
	c0-71.8,0-143.6,0-215.4c0-25.1,0-50.2,0.1-75.3c0-3.7-0.6-7-2-10.4c-3.2-8,1.2-16.4,9.7-18.1c2.5-0.5,3.9-1.6,5.1-3.9
	c4.5-8.8,10-17,17.4-23.8c5.4-5,11.2-9.5,17.6-13.3c5.9-3.5,12-6.7,18.2-9.8c3.2-1.6,6.5-2.9,9.8-4.1c1.3-0.5,2.1-1.3,2.4-2.7
	c0.4-2,0.9-4,1.1-6.1c0.3-2.8,0.4-5.7,1.5-8.4c1.2-2.9,0-4.3-3.2-4.3c-1.8,0-3.7,0.2-5.5,0.4c-8.7,0.9-17.4,1.9-26,2.8
	C298.3,99.9,297.5,99.9,296.4,99.9z M383.3,172C383.3,172,383.3,172,383.3,172c21.6,0,43.2,0,64.8,0c9.3,0,18.6,0.2,27.9,0.2
	c3.9,0,7.8-0.1,11.7-0.2c3.8-0.1,4.6-1,3-4.3c-1.3-2.9-3.1-5.6-5-8.2c-5.5-7.5-12.5-13.5-20.1-18.7c-8-5.5-16.7-9.8-25.7-13.2
	c-7.3-2.8-14.8-5.2-22.4-6.6c-9.8-1.8-19.8-2.8-29.7-3.5c-11.2-0.8-22.2,1-33.3,2.5c-2.4,0.3-4.8,0.7-7.1,1.4
	c-4.7,1.3-9.4,3-14.1,4.3c-7.1,1.8-13.6,5-20,8.3c-10.2,5.3-19.6,11.9-27.6,20.3c-3.6,3.9-6.9,8-9.2,12.8c-2,4.3-1.6,4.8,3.2,4.8
	C314.4,172,348.8,172,383.3,172z M508.1,449.4C508.1,449.4,508.2,449.4,508.1,449.4c0.1-7.2,0.1-14.5,0.1-21.7
	c-0.1-9.8-0.3-19.6-0.3-29.3c0-34.2,0.2-68.4,0.2-102.5c0-30.5-0.1-61-0.1-91.5c0-4.7-0.5-5.3-4.6-5.3
	c-62.4,0.1-124.9,0.2-187.3,0.2c-16.9,0-33.8-0.1-50.7-0.2c-5,0-5.5,0.4-5.5,5.5c0,25.8,0.1,51.5,0.1,77.3c0,69.2,0,138.3,0,207.5
	c0,47.4,0.1,94.8,0,142.3c0,19-0.3,38-0.2,56.9c0,6.9,0.2,13.8,4.5,19.8c3.6,5,7.7,9.1,13.5,11.2c4.8,1.8,9.9,2.1,14.9,2.1
	c48.1,0,96.1,0.1,144.2,0.1c13.8,0,27.6,0.1,41.4,0c6.3,0,12.2-1.6,17.4-5.5c7.8-5.8,12.1-13.2,12.1-23.1c0-16.8,0.2-33.6,0.3-50.4
	c0-12.9,0-25.8,0-38.7C508.1,552.5,508.1,501,508.1,449.4z M370.1,53.9C370.1,53.9,370.1,54,370.1,53.9C365.4,54,360.7,54,356,54
	c-4.1,0-4.8,0.4-5.8,4.3c-0.8,2.9-1.6,5.8-2.1,8.7c-1.1,5.4-2,10.8-2.9,16.2c-0.6,3.2-1.2,6.3-1.8,9.5c-1.2,6.3-2.4,12.6-3.6,18.9
	c-0.4,2.1,0.4,3.1,2.6,3c1.8-0.1,3.6-0.4,5.4-0.8c3.4-0.7,6.7-1.9,10.1-2.2c6.5-0.7,13-1.3,19.6-1.4c14.5-0.4,28.9,0.3,43.1,3.4
	c2.6,0.6,3.4-0.2,3.1-2.8c-0.1-0.6-0.3-1.1-0.4-1.7c-2.5-9.8-4.9-19.6-7.5-29.4c-0.9-3.4-1.6-7-3.2-10.1c-4.5-9.1-11.6-14.6-22.1-15
	C383.6,54.4,376.9,54.1,370.1,53.9z M383.3,180.3C383.3,180.3,383.3,180.3,383.3,180.3c-38.6,0-77.3,0-115.9,0
	c-1.8,0-3.7-0.1-5.5,0.1c-3.3,0.4-5.1,2.5-5.1,5.8c0,2.8,1.8,4.8,4.9,5.3c0.8,0.1,1.6,0.1,2.4,0.1c26.1,0,52.2,0.1,78.2,0.1
	c24.7,0,49.4,0,74.2,0c27.8,0,55.6,0.1,83.5,0.2c3,0,5.7-0.4,7.7-2.9c1.1-1.4,2.5-2.6,1.8-4.5c-0.8-2-2.1-3.6-4.4-3.9
	c-1.6-0.2-3.2-0.3-4.8-0.3C461.2,180.3,422.2,180.3,383.3,180.3z"/>
<path class="st0" d="M431.2,67.2c-0.4-0.3-1.4-0.6-1.7-1.3c-1.3-2.3-2.4-4.7-3.4-7.1c-0.9-2-0.3-3.3,1.8-4c4.3-1.5,8.7-2.8,13-4.3
	c4.8-1.8,9.6-3.7,14.4-5.6c3.6-1.4,7.3-2.7,10.9-4c2.1-0.7,3-0.5,3.8,1.6c1.9,4.7,3.5,9.4,5.1,14.2c0.6,2-0.3,3-2.4,3.3
	c-7.5,1.2-14.9,2.4-22.4,3.7c-5.8,1-11.5,2.1-17.2,3.2C432.6,67,432.2,67.1,431.2,67.2z"/>
<path class="st0" d="M476.9,68.2c0.3,1,0.6,1.5,0.6,2.1c0.1,6,0.3,11.9,0.1,17.9c-0.1,3.2-0.9,3.3-4,2.6c-4.6-1.1-9.2-1.8-13.8-2.8
	c-7.7-1.6-15.5-3.2-23.2-4.8c-1.4-0.3-2.1-1-2.6-2.4c-1.9-5.8-1.9-5.8,4-6.8c7.4-1.2,14.7-2.5,22.1-3.7c1.1-0.2,2.3-0.2,3.4-0.3
	c2.7-0.4,5.4-0.9,8.1-1.3C473.3,68.5,475.1,68.4,476.9,68.2z"/>
<path class="st0" d="M438,92.3c1.6,0.2,2.8,0.3,4,0.5c4.1,0.9,8.3,1.8,12.4,2.7c6.3,1.3,12.5,2.6,18.8,3.9c2.7,0.6,3,1.1,2.7,3.8
	c-0.1,0.6-0.1,1.2-0.3,1.7c-1.3,4.5-2.5,9.1-4,13.5c-0.9,2.9-2,3.3-4.6,1.9c-5.8-3-11.5-6.2-17.2-9.2c-1.5-0.8-3-1.6-4.6-2.3
	c-2.6-1.1-4.2-3-4.8-5.9C439.7,99.5,438.8,96.1,438,92.3z"/>
<path class="st0" d="M384,93.3c-7,0.4-10.1-5.2-10.3-9.6c-0.2-5.1,4.7-10.4,9.5-10.4c6.7,0,11.7,4.4,11.7,10.3
	C394.8,88.9,389.9,93.3,384,93.3z M377.4,83.7c0,3.8,2.9,6.9,6.5,7c3.8,0,7.4-3.7,7.4-7.5c0-3.4-3.4-6.7-6.9-6.7
	C380.5,76.3,377.5,79.5,377.4,83.7z"/>
<path class="st0" d="M485.5,704.5h-204c-3.3,0-6-2.7-6-6V217.7c0-3.3,2.7-6,6-6h204c3.3,0,6,2.7,6,6v480.9
	C491.6,701.8,488.9,704.5,485.5,704.5z"/>
<path class="st1" d="M472.4,307.7v-77.3h-176v77.3c0,0,35.8,41.2,88.1,41.2S472.4,307.7,472.4,307.7z"/>
<g>
	<path class="st0" d="M458.3,252.9c0-1.6-0.2-3-0.6-4.4c-1.2-3.7-4.8-6.2-8.7-6.4c-3.4-0.5-8.1-1-13.9,1c-3.7,1.6-5.9,5.1-6.4,9
		l-0.1,22.9h-3.1v-32.8h-13.9l-15.5,33.5v11H413v9.4h12.6v-9.4h3.2c1.6,5.2,6.6,9,11.6,9.4c3.6-0.2,7.4,0.5,10.6-0.9
		c3.9-1.7,7.1-5.9,7.3-10.4L458.3,252.9z M412.9,275.5h-4.8v-0.2l4.7-9.4l0.2,0.1V275.5z M444.3,287.3c-0.8,0.2-1.7,0-2-0.8
		l-0.2-1.2v-34c0.2-0.5,0.6-0.9,1.2-1c0.6-0.1,1.1,0.1,1.6,0.4l0.4,0.8v34.7C445,286.7,444.5,287,444.3,287.3L444.3,287.3z
		 M382.1,283.8v-30.9c0-1.5-0.2-3.1-0.7-4.5c-1.2-3.4-4.5-5.9-7.9-6.2h-30l-2.9,16.4l-2.6-16.4h-10c-0.7,3-2.7,16-2.7,16
		c-0.1,0-2.3-15.9-2.3-15.9h-12.7l8.7,53.9h11l2.9-17.1c0.1,0.2,2.8,17.1,2.8,17.1h11.3l5.9-36.7V296l20.1,0.1
		c2,0.1,3.6-0.8,5.2-1.8C381.5,292,382.3,287.7,382.1,283.8L382.1,283.8z M366.4,285.4h-0.2v-32.8c0.8-0.1,1.9,0.5,2.2,1.2l0.2,0.6
		V284C368.4,284.5,367,285.3,366.4,285.4L366.4,285.4z M459.9,296.5h-0.7v-3.4h1.3c0.8,0,1.2,0.2,1.2,1c0,0.7-0.4,0.9-0.8,0.9
		l0.9,1.4H461l-0.8-1.3h-0.4V296.5z M459.9,294.5h0.6c0.3,0,0.5-0.1,0.5-0.4s-0.2-0.4-0.5-0.4h-0.6V294.5z M460.3,291.3
		c2,0,3.5,1.6,3.5,3.5s-1.6,3.5-3.5,3.5s-3.5-1.6-3.5-3.5S458.4,291.3,460.3,291.3z M460.3,297.4c1.5,0,2.5-1.1,2.5-2.6
		c0-1.6-1-2.6-2.5-2.6s-2.5,1.1-2.5,2.6S458.9,297.4,460.3,297.4z M384.1,263.6h9.8v11.9h-9.8V263.6z"/>
</g>
</svg>
