<?xml version="1.0" encoding="UTF-8"?>
<svg id="Layer_1" data-name="Layer 1" xmlns="http://www.w3.org/2000/svg" viewBox="0 0 322.87 301.33">
  <defs>
    <style>
      .cls-1 {
        fill: #004174;
        stroke-width: 0px;
      }
    </style>
  </defs>
  <path class="cls-1" d="m322.85,61.13c-.02-8.22-4.64-12.76-12.84-12.77-12.19,0-24.39-.03-36.58.03-1.6,0-2.36-.44-2.85-2.02-2.76-8.77-5.63-17.51-8.48-26.25-2.14-6.56-6.1-9.42-13.02-9.42-12.94,0-25.89,0-38.83,0-7.34,0-11.18,2.79-13.45,9.78-2.77,8.53-5.58,17.06-8.27,25.61-.53,1.68-1.21,2.33-3.09,2.31-12.27-.1-24.54-.07-36.81-.04-7.75.02-12.42,4.73-12.42,12.48-.01,11.52,0,23.04,0,34.56,0,.94-.08,1.88-.13,3-4.95,0-9.65,0-14.35,0-14.65,0-25.26,10.47-25.28,25.13-.05,34.49-.02,68.98-.04,103.47,0,1.34-.01,2.71-.26,4.02-1.62,8.63-9.25,14.44-18.03,13.8-9.19-.67-16.22-7.75-16.45-16.78-.15-5.98-.05-11.97-.06-17.95,0-10.32-.01-20.65.01-30.97,0-.96-.32-1.99,1.21-2.46,10.98-3.34,15.64-9.68,15.64-21.07,0-26.48,0-52.97,0-79.45,0-4.8-1-5.8-5.77-5.8-3.64,0-7.28,0-11.1,0,0-5.34-.11-10.34.05-15.34.08-2.61-.69-4.58-2.64-6.32-2.56-2.27-4.93-4.76-7.45-7.22.66-.83,1.11-1.42,1.57-1.99,2.58-3.2,2.36-6.36-.81-9.04C40.95,20.82,29.57,11.22,18.19,1.63c-2.85-2.4-6.05-2.13-8.52.67-2.42,2.75-4.78,5.55-7.15,8.35-3.61,4.27-3.37,6.98.94,10.62,10.56,8.94,21.21,17.78,31.63,26.88,3.95,3.45,7.76,4.06,11.23-.53.07-.1.27-.1.41-.15,2.13,2.09,4.28,4.16,6.38,6.3.38.39.74,1.02.75,1.54.06,4.92.03,9.85.03,15.04-4.09,0-7.96,0-11.84,0-3.69,0-5.01,1.3-5.01,4.99,0,27.23-.03,54.47,0,81.7,0,9.67,5.56,16.97,14.85,19.43,1.69.45,2.05,1.15,2.04,2.74-.05,15.34-.05,30.67-.02,46.01,0,2.24.02,4.52.43,6.7,2.4,12.94,14.2,21.77,27.25,20.53,13.1-1.25,22.43-11.61,22.44-25,.02-28.8,0-57.61,0-86.41,0-6.13-.07-12.27.02-18.4.11-7.6,5.13-13.98,12.44-16.01.14-.04.29-.1.44-.1,6.32,0,12.64,0,19.24,0v2.49c0,19.75,0,39.5,0,59.25,0,32.02,0,64.04,0,96.06,0,7.7,4.71,12.38,12.48,12.42.86,0,1.72.07,2.77.12,0,5.62-.05,10.99.02,16.36.06,4.96,3.09,8.03,7.97,8.06,8.83.05,17.66.06,26.48,0,4.93-.03,7.92-3.07,7.99-8.05.06-4.64.01-9.28.02-13.92,0-.8.07-1.61.1-2.38h71.11c0,5.59-.03,10.97,0,16.35.03,4.9,3.1,7.97,8.02,7.99,8.75.04,17.51.04,26.26,0,5.07-.02,8.11-3.06,8.17-8.11.05-4.64,0-9.28.02-13.92,0-.79.07-1.58.12-2.52,1.43,0,2.62.04,3.8,0,6.04-.21,10.61-4.46,11.21-10.46.12-1.19.12-2.39.12-3.59,0-51.17,0-102.35,0-153.52,0-16.01.02-32.02-.01-48.03ZM41.71,41.06c-.38.45-.76.91-1.26,1.51-10.69-9.05-21.21-17.96-31.97-27.06,2.02-2.37,3.92-4.62,5.96-7.02,10.68,9.04,21.2,17.96,31.94,27.05-1.69,2.01-3.18,3.77-4.67,5.53Zm257.46,25.57c.74,0,1.52-.05,2.23.13,1.78.45,2.85,1.61,2.91,3.5.06,1.88-.87,3.16-2.66,3.67-.84.24-1.77.24-2.66.24-9.34.02-18.68,0-28.03,0-9.19,0-18.39,0-27.58-.01-.89,0-1.81,0-2.67-.22-1.73-.43-2.89-1.79-2.66-3.41.18-1.26,1.27-2.54,2.26-3.49.52-.5,1.69-.42,2.57-.42,18.76-.02,37.52-.02,56.28,0Zm-2.17,63.59c-.14,14.09-11.85,25.57-26,25.48-14.35-.09-25.77-11.75-25.68-26.23.08-14.05,11.81-25.55,25.98-25.48,14.33.07,25.85,11.83,25.71,26.23Zm-100.39-84.32c2.5-7.75,5.01-15.51,7.54-23.26,1.13-3.48,2.25-4.27,5.88-4.27,12.94,0,25.88-.01,38.82-.01,3.82,0,4.89.78,6.05,4.35,2.5,7.68,4.99,15.36,7.48,23.04.25.76.44,1.54.71,2.5h-67.13c.24-.86.41-1.61.65-2.35Zm-32.44,28.47h49.7v20.63h-49.7v-20.63Zm6.98,156.86c5.18-.04,9.54,4.3,9.57,9.53.03,5.2-4.32,9.55-9.54,9.55-5.25,0-9.58-4.3-9.58-9.51,0-5.22,4.3-9.53,9.55-9.57Zm-9.54-37.41c.18-5.26,4.61-9.48,9.79-9.32,5.22.16,9.45,4.61,9.32,9.8-.13,5.21-4.57,9.43-9.8,9.3-5.21-.13-9.49-4.62-9.31-9.78Zm24.47,99.67h-26.83v-16.61h26.83v16.61Zm-22-147.07v-20.58h49.78v20.58h-49.78Zm135.7,147.09h-26.93v-16.57h26.93v16.57Zm1.47-42.73c-.72.15-1.49.09-2.24.09-14.96,0-29.92,0-44.88,0-14.96,0-29.92,0-44.88,0-.75,0-1.52.07-2.24-.08-1.91-.4-3.03-1.62-3.06-3.6-.03-1.97,1.02-3.26,2.94-3.69.79-.18,1.64-.12,2.46-.12,29.77,0,59.54,0,89.31,0,.9,0,1.82-.05,2.68.13,1.94.41,2.96,1.71,2.95,3.68-.02,1.98-1.12,3.21-3.05,3.6Zm.32-22.23c-1.16.39-2.21.33-2.89.22-29.55,0-59.1,0-88.65,0-.6.11-1.47.18-2.47-.04-.8-.17-2.27-.48-3.08-1.78-.36-.58-.56-1.28-.55-2.04.03-2.01,1.56-3.54,3.74-3.72.52-.04,1.05-.01,1.57-.01,29.93,0,59.85,0,89.78,0,.89,0,1.82,0,2.66.24,1.8.52,2.69,1.84,1.91,5.87-.19.97-1.39,1.04-2.01,1.25Zm-97.64-25.77c.05-2.54,1.77-3.69,5.55-3.69,14.96,0,29.92,0,44.88,0,14.88,0,29.77,0,44.65,0,.82,0,1.67-.04,2.45.15,1.71.42,2.71,1.59,2.83,3.34.07.96-.14,1.79-.6,2.44-.57.81-1.36,1.11-1.94,1.33-1.17.45-2.24.39-2.88.3-29.77,0-59.54,0-89.31.01-2.19.38-4.22-.34-5.08-1.76-.58-.96-.56-2.12-.56-2.12Zm96.08-18.35c-15.34.02-30.67.01-46.01.01-14.96,0-29.92,0-44.88-.01-1.03,0-2.4.13-3.01-.44-.98-.91-2.08-2.41-1.99-3.57.09-1.16,1.44-2.39,2.51-3.25.58-.46,1.72-.29,2.61-.29,29.77-.01,59.55,0,89.32,0,.52,0,1.05-.02,1.57.01,2.65.15,4.28,1.7,4.18,3.98-.09,2.17-1.69,3.56-4.3,3.57Z"/>
  <path class="cls-1" d="m256.38,129.78c-.05,8.14,6.58,14.8,14.8,14.86,7.98.06,14.69-6.66,14.71-14.72.02-8.22-6.58-14.83-14.8-14.81-8.1.01-14.67,6.56-14.72,14.68Z"/>
</svg>