<?xml version="1.0" encoding="utf-8"?>
<!-- Generator: Adobe Illustrator 27.8.1, SVG Export Plug-In . SVG Version: 6.00 Build 0)  -->
<svg version="1.1" id="Layer_1" xmlns="http://www.w3.org/2000/svg" xmlns:xlink="http://www.w3.org/1999/xlink" x="0px" y="0px"
	 viewBox="0 0 779 768" style="enable-background:new 0 0 779 768;" xml:space="preserve">
<style type="text/css">
	.st0{fill:#004174;}
</style>
<path class="st0" d="M486.3,323.1c-0.9,15.2-0.9,29.5-2.6,43.5c-5.5,45.7-11.1,91.4-17.7,137c-9.5,65.3-6.8,130,6.7,194.3
	c0.4,1.8,0.7,3.6,0.9,5.4c0.1,0.6-0.1,1.3-0.3,2.7c-9.4-0.8-18.7-1.4-28-2.3c-49.7-4.6-99.5-8.8-149.2-14.1
	c-14.7-1.6-29.4-5.5-43.7-9.9c-38-11.8-60.7-38.4-69-76.6c-4.9-22.4-7.6-45.4-9.8-68.2c-5-52.5-9.2-105.1-13.6-157.6
	c-1.9-22.7-3.8-45.4-5.7-68.1c0.6-0.1,1.2-0.4,1.4-0.2c24.7,21.7,54.7,31.6,86,38.6c65.6,14.7,131.1,15.4,196-3.7
	c15.3-4.5,29.6-12.4,44.4-18.8C482.9,324.6,483.9,324.1,486.3,323.1z"/>
<path class="st0" d="M497.9,301.1c-13.1,7.9-25.2,15.1-38.3,23.1c0-43.2,0-84.3,0-125.5c42.5,19.9,84.7,20,128.1-0.3
	c0,2,0,4.1,0,6.2c0,119.1-0.1,238.2,0.1,357.2c0,9-3.3,15.7-11.2,18.8c-10.8,4.2-22,8.4-33.4,10.1c-22.1,3.3-44.1,1.9-65.4-5.9
	c-4.7-1.7-6.4-4.2-5.9-9.1c4-38,7-76.1,12-113.9c6.7-50.7,14.7-101.2,14-152.5C497.8,306.9,497.9,304.7,497.9,301.1z"/>
<path class="st0" d="M283.5,342.5c0-47.8,0-95.2,0-142.8c42.5,19.9,84.6,19.8,127.5,0.3c0.2,0.9,0.6,2.4,0.6,3.8
	c0,42.9,0,85.7,0.1,128.6c0,3.8-0.3,6.4-5,7.3c-39.7,7.3-79.6,8.6-119.7,3.7C286.1,343.2,285.2,342.9,283.5,342.5z"/>
<path class="st0" d="M271,341.2c-32.3-5.6-63.4-12.2-90.8-29.3c-9.3-5.8-17.8-14-24.3-22.8c-9-12.1-8.3-23.8,2.1-34.6
	c11.8-12.4,24.5-24.6,38.6-34.1c21.5-14.4,44.6-26.5,67.1-39.5c2.1-1.2,4.5-2,7.4-3.2C271,232.6,271,286.5,271,341.2z"/>
<path class="st0" d="M423.6,335.9c0-3.9,0-6.4,0-8.9c0-48.8-0.1-97.6,0.1-146.4c0-9.9-3.7-17.2-11.2-23.2
	c-10.2-8.1-22.1-12.1-34.5-14.9c-2-0.5-4-0.9-6.4-1.4c0-10.5,0-20.7,0-31.1c42.3,19.7,84.7,20.1,127.5-0.1c0,9.8,0,20,0,30.7
	c-6.2,1.8-12.9,3.2-19.2,5.7c-6.6,2.6-13.1,5.6-19.1,9.4c-9.4,5.9-13.8,14.5-13.7,26.1c0.3,46.7,0,93.5,0.2,140.2
	c0,5-1.3,7.5-6.2,8.6C435.5,331.9,430.2,333.8,423.6,335.9z"/>
<path class="st0" d="M352,150c10.8,2.3,25.9,5.1,40.8,8.8c4.7,1.2,9.2,4.3,13.1,7.4c7.9,6.3,7.9,14.8,0,21c-4.3,3.4-9.2,6.3-14.3,8
	c-29.8,10-59.7,10-89.3-0.5c-4.5-1.6-8.8-4.1-12.5-7.1c-8.5-6.6-9-16.3,0.1-21.7c9.1-5.5,19.4-9.4,29.6-12.2
	C328.4,151.4,338,151.6,352,150z M347.3,188.1c6.9-1.7,14.2-2.8,20.8-5.5c6.6-2.7,6.6-8.6,0.1-11.6c-13.6-6.2-27.6-6.1-41.3-0.2
	c-2.2,0.9-4.9,4.1-4.7,5.9c0.3,2.4,2.9,5.5,5.2,6.3C333.7,185.2,340.2,186.4,347.3,188.1z"/>
<path class="st0" d="M522.7,202.6c-15.9-0.6-32.4-1.8-47.8-9c-7.3-3.4-15.4-7-15.5-16.7c-0.1-9.6,7.8-13.8,15.3-16.7
	c32.5-12.6,65.2-12.6,97.6,0.2c7.3,2.9,14.9,7.2,14.9,16.4c0.1,9.2-7.6,13.2-14.7,16.5C557.1,200.6,540.3,202.2,522.7,202.6z
	 M523.4,165.5c-7.1,1.8-14.4,3-21,5.7c-6.2,2.6-6.3,8.4-0.2,11.3c13.8,6.5,28,6.3,41.9,0.2c2.1-0.9,4.6-4.1,4.5-6.1
	c-0.1-2.1-2.8-5.1-5-5.8C537.3,168.5,530.5,167.3,523.4,165.5z"/>
<path class="st0" d="M431.9,114.9c-11.7-2.4-26.5-5.1-41.2-8.7c-4.7-1.2-9.2-4.2-13.2-7.3c-8.6-6.6-8.6-15.1-0.1-21.9
	c9.6-7.8,21.2-10.7,33.1-12.7c22.8-3.8,45.4-2.9,67.5,4.6c4.3,1.5,8.6,3.5,12.4,6c12.2,8.1,12.5,18.5,0,26
	c-7.2,4.3-15.4,7.4-23.5,9.3C456.7,112.5,446,113.1,431.9,114.9z M435.3,99.5c7.3-1.9,14.6-3.1,21.2-5.9c6.2-2.6,6.2-8.4,0.1-11.3
	c-13.8-6.6-28.1-6.5-41.9-0.2c-6.6,3.1-6.7,8.7-0.1,11.5C421,96.4,428.1,97.6,435.3,99.5z"/>
</svg>
