<svg width="184" height="118" viewBox="0 0 184 118" fill="none" xmlns="http://www.w3.org/2000/svg">
<path d="M136.474 78.9544L100.121 59.7404C96.9973 58.0897 93.4538 57.2207 89.8467 57.2207C86.2396 57.2207 82.6961 58.0897 79.5724 59.7404L43.2197 78.9544H136.474Z" fill="#FFCC00"/>
<path d="M93.0315 0L93.0254 38.4175C93.0249 41.7185 93.9741 44.9613 95.7776 47.8201C97.5811 50.6788 100.175 53.0526 103.299 54.7028L139.661 73.9064L93.0315 0Z" fill="#FFCC00"/>
<path d="M40.0352 73.9064L76.3974 54.7028C79.5215 53.0528 82.1158 50.679 83.9193 47.8202C85.7228 44.9614 86.6719 41.7185 86.6712 38.4175L86.6651 0L40.0352 73.9064Z" fill="#FFCC00"/>
<path d="M177.49 99.9202H171.017C170.521 99.9195 170.046 99.739 169.695 99.4181C169.344 99.0973 169.147 98.6622 169.146 98.2085V96.9365C169.147 96.4827 169.344 96.0477 169.695 95.7268C170.046 95.406 170.521 95.2254 171.017 95.2248H177.295C177.866 95.2254 178.414 95.4333 178.817 95.8028C179.221 96.1723 179.448 96.6733 179.449 97.1958H183.01C183.009 95.8092 182.406 94.4798 181.335 93.4993C180.263 92.5188 178.81 91.9673 177.295 91.9658H171.017C169.577 91.9675 168.196 92.4918 167.178 93.4236C166.16 94.3554 165.588 95.6188 165.586 96.9365V98.2085C165.588 99.5262 166.16 100.79 167.178 101.721C168.196 102.653 169.577 103.177 171.017 103.179H177.49C178.092 103.18 178.669 103.398 179.095 103.787C179.521 104.176 179.761 104.703 179.763 105.254V106.14C179.762 106.692 179.523 107.22 179.097 107.61C178.671 108 178.093 108.219 177.49 108.22H171.735C171.031 108.219 170.355 107.963 169.857 107.507C169.359 107.051 169.078 106.433 169.077 105.788V105.65H165.517V105.795C165.519 107.304 166.175 108.75 167.34 109.817C168.506 110.884 170.087 111.484 171.735 111.486H177.49C179.037 111.484 180.519 110.921 181.613 109.92C182.706 108.92 183.322 107.563 183.324 106.148V105.261C183.323 103.845 182.707 102.488 181.614 101.487C180.52 100.486 179.037 99.9223 177.49 99.9202Z" fill="#11263B"/>
<path d="M158.49 103.683C158.487 104.887 157.964 106.041 157.034 106.892C156.104 107.743 154.843 108.222 153.528 108.224H151.548C150.232 108.222 148.972 107.743 148.041 106.892C147.111 106.041 146.588 104.887 146.585 103.683V91.9658H143.025V103.683C143.028 105.751 143.927 107.734 145.524 109.196C147.122 110.658 149.288 111.48 151.548 111.483H153.529C155.789 111.48 157.955 110.658 159.552 109.196C161.15 107.734 162.049 105.751 162.052 103.683V91.9658H158.491L158.49 103.683Z" fill="#11263B"/>
<path d="M141.015 111.483V109.182C141.015 108.928 140.905 108.685 140.708 108.505C140.512 108.326 140.246 108.225 139.968 108.225H129.695V91.9658H126.133V109.616C126.133 109.861 126.186 110.104 126.289 110.33C126.391 110.557 126.541 110.763 126.731 110.936C126.92 111.109 127.145 111.247 127.393 111.341C127.64 111.435 127.906 111.483 128.174 111.483H141.015Z" fill="#11263B"/>
<path d="M104.844 111.483H108.405V104.977H116.651C118.229 104.977 119.743 104.403 120.859 103.382C121.975 102.361 122.602 100.976 122.602 99.5323V97.4113C122.602 95.9671 121.975 94.582 120.859 93.5608C119.743 92.5395 118.229 91.9658 116.651 91.9658H106.804C106.547 91.9658 106.292 92.0122 106.054 92.1023C105.816 92.1924 105.6 92.3245 105.418 92.491C105.236 92.6575 105.092 92.8552 104.994 93.0727C104.895 93.2903 104.844 93.5234 104.844 93.7589V111.483ZM119.041 99.5323C119.04 100.112 118.788 100.668 118.34 101.078C117.892 101.488 117.285 101.718 116.651 101.719H108.405V95.2248H116.651C117.285 95.2254 117.892 95.456 118.34 95.8659C118.788 96.2758 119.04 96.8316 119.041 97.4113V99.5323Z" fill="#11263B"/>
<path d="M80.3973 91.9658H59.8958V95.2248H68.382V111.483H71.9424V95.2248H80.3973V91.9658Z" fill="#11263B"/>
<path d="M62.2971 111.483V109.081C62.2973 108.968 62.2731 108.857 62.226 108.753C62.179 108.648 62.11 108.554 62.0229 108.474C61.9358 108.394 61.8325 108.331 61.7187 108.288C61.6049 108.245 61.4829 108.222 61.3598 108.222H50.0473V91.9658H46.4844V109.695C46.4846 110.17 46.6905 110.624 47.0567 110.959C47.423 111.294 47.9197 111.483 48.4376 111.483H62.2971Z" fill="#11263B"/>
<path d="M24.0149 93.732V109.72C24.0149 110.188 24.2181 110.637 24.5798 110.968C24.9416 111.299 25.4322 111.485 25.9437 111.485H41.283V109.14C41.2834 109.02 41.2577 108.901 41.2074 108.789C41.1572 108.678 41.0834 108.577 40.9903 108.492C40.8972 108.406 40.7866 108.339 40.6649 108.293C40.5432 108.247 40.4127 108.224 40.2811 108.224H27.5753V103.357H37.7227V100.098H27.5753V95.2307H41.3022V91.9717H25.9437C25.4331 91.9717 24.9433 92.157 24.5817 92.487C24.2201 92.817 24.0163 93.2647 24.0149 93.732Z" fill="#11263B"/>
<path d="M10.525 91.9658H2.80177C2.2791 91.9658 1.77784 92.1558 1.40826 92.494C1.03868 92.8323 0.831055 93.291 0.831055 93.7693V109.679C0.831055 110.157 1.03866 110.616 1.40821 110.954C1.77777 111.293 2.27902 111.483 2.80177 111.483H10.525C12.9996 111.483 15.3728 110.583 17.1226 108.982C18.8724 107.381 19.8554 105.209 19.8554 102.945V100.51C19.8562 99.3881 19.6155 98.2772 19.1469 97.2406C18.6784 96.204 17.9912 95.2621 17.1248 94.4686C16.2583 93.6752 15.2294 93.0458 14.097 92.6163C12.9646 92.1869 11.7508 91.9658 10.525 91.9658ZM16.3011 102.941C16.2995 104.342 15.6909 105.684 14.6089 106.675C13.5269 107.665 12.0597 108.222 10.5294 108.224H4.39142V95.224H10.525C12.0554 95.2257 13.5225 95.7828 14.6045 96.7732C15.6866 97.7635 16.2952 99.1062 16.2968 100.507L16.3011 102.941Z" fill="#11263B"/>
<path d="M89.8471 91.6455L77.5005 111.483H81.5989L83.6202 108.235H96.0749L98.0962 111.483H102.195L89.8471 91.6455ZM85.6476 104.977L89.8471 98.2297L94.0466 104.977H85.6476Z" fill="#11263B"/>
<path d="M73.4438 118H106.25L104.222 114.741H75.4721L73.4438 118Z" fill="#FFCC00"/>
</svg>
