<?xml version="1.0" encoding="utf-8"?>
<!-- Generator: Adobe Illustrator 27.0.1, SVG Export Plug-In . SVG Version: 6.00 Build 0)  -->
<svg version="1.1" id="Layer_1" xmlns="http://www.w3.org/2000/svg" xmlns:xlink="http://www.w3.org/1999/xlink" x="0px" y="0px"
	 viewBox="0 0 144.7 40.2" style="enable-background:new 0 0 144.7 40.2;" xml:space="preserve">
<style type="text/css">
	.st0{fill:#FFFFFF;}
</style>
<g>
	<path class="st0" d="M78.8,0c-2.8,0-5.2,1.8-6,4.4L61.1,40.1h12.7l13.1-40h-8.1V0z"/>
	<path class="st0" d="M136.9,1.3L136.9,1.3c-1.6-0.8-3.5-1.2-5.5-1.2h-23.5l0,0h-8.1c-2.7,0-5.2,1.8-6,4.4L82.1,40.2h12.7l1.9-5.6
		l6.3-19.3l0,0l1.3-4h24.1c1.5,0,2.8,0.8,3.5,2.1c0.7,1.3,0.5,2.9-0.4,4.1c-1,1.4-2.7,2.2-4.4,2.2h-22.9l-3.6,11.1h28
		c6.1,0,13.4-3.8,15.7-14.3C146.4,6.8,139.2,2.4,136.9,1.3"/>
	<path class="st0" d="M54.8,1.3L54.8,1.3c-1.6-0.8-3.5-1.2-5.5-1.2H25.8l0,0h-8.1c-2.7,0-5.2,1.8-6,4.4L0,40.2h12.7l1.9-5.6
		l6.3-19.3l0,0l1.3-4h24.1c1.5,0,2.8,0.8,3.5,2.1c0.7,1.3,0.5,2.9-0.4,4.1c-1,1.4-2.7,2.2-4.4,2.2H22.1l-3.6,11.1h28
		c6.1,0,13.4-3.8,15.7-14.3C64.3,6.8,57.1,2.4,54.8,1.3"/>
</g>
</svg>
