<?xml version="1.0" encoding="UTF-8"?>
<svg id="Layer_1" data-name="Layer 1" xmlns="http://www.w3.org/2000/svg" viewBox="0 0 492.32 394.14">
  <defs>
    <style>
      .cls-1 {
        stroke-width: 0px;
      }
    </style>
  </defs>
  <path class="cls-1" d="m426.66,202.66c9.39-3.38,16.22,3.16,17.08,11.88,1.03,10.41-2.67,19.24-9.74,26.64-3.62,3.79-7.92,6.69-13.54,6.87-5.33.18-9.4-2.92-11.33-7.6-2.84-6.89-1.65-13.69.99-20.31,2.63-6.62,6.8-12.08,12.96-15.84,1.11-.68,2.38-1.11,3.58-1.65Zm-12.28,33.65c1.59,4.85,4.48,6.38,8.52,4.84,1.69-.65,3.38-1.57,4.73-2.75,6.93-6.04,10.53-13.68,9.83-22.93-.48-6.29-4.67-9.26-10.5-6.03-5.64,3.12-9.03,8.06-11.24,13.92-1.68,4.44-2.44,8.98-1.33,12.95Z"/>
  <g>
    <path class="cls-1" d="m239.07,179.35c-7.16,6.8-13.96,13.27-21.03,20-2.83-2.44-5.64-4.72-8.28-7.17-1.7-1.58-3.04-2.32-4.98-.22-2.53,2.74-5.48,5.1-7.99,7.86-.64.69-.66,2.35-.38,3.4.91,3.41,2.02,6.78,3.22,10.11.7,1.93.43,3.29-1.15,4.73-5.59,5.12-11.05,10.38-16.56,15.59-1.86,1.76-3.72,3.53-5.75,5.45-3.4-3.01-6.53-5.78-10.05-8.9-3.83,3.77-7.6,7.41-11.25,11.16-.44.45-.55,1.59-.35,2.26,1.02,3.39,2.13,6.75,3.35,10.07.66,1.8.16,3.04-1.15,4.32-6.36,6.25-12.64,12.58-18.96,18.87-.27.27-.51.62-.84.78-2.57,1.2-3.4,5.7-6.85,4.59-2.58-.83-4.68-3.21-6.96-4.94-8.22-6.25-16.42-12.53-24.63-18.79-9.2-7.02-18.41-14.03-27.62-21.03-6.4-4.86-12.8-9.71-19.22-14.55-7.7-5.81-15.44-11.57-23.13-17.4-8.23-6.24-16.42-12.52-24.63-18.8-1.2-.92-2.38-1.87-3.86-3.03,2.53-2.25,4.84-4.35,7.2-6.39,1.75-1.51,3.72-2.78,5.31-4.43,1.81-1.89,3.42-1.84,5.54-.55,19.33,11.79,38.67,23.55,58.05,35.24,18.31,11.04,36.7,21.96,55.03,32.97,5.8,3.48,11.52,7.08,17.21,10.59.35-.31.63-.48.61-.54-1.38-4.15-2-8.85-4.44-12.26-2.12-2.97-6.23-4.56-9.56-6.61-12.45-7.64-24.93-15.21-37.41-22.81-12.48-7.61-24.96-15.22-37.44-22.83-12.39-7.55-24.79-15.08-37.19-22.62-3.64-2.21-7.28-4.43-11.45-6.96,2.35-2.01,4.38-3.71,6.36-5.45,3.61-3.17,7.12-6.45,10.82-9.51.74-.62,2.26-.88,3.19-.58,3.26,1.05,6.38,2.54,9.65,3.58.94.3,2.51.01,3.22-.63,4.87-4.36,4.87-4.52,10.65-1.57,16.85,8.58,33.63,17.28,50.47,25.88,19.82,10.13,39.67,20.19,59.49,30.32,7.9,4.04,15.76,8.17,23.64,12.25.58.3,1.22.49,2.49,1-1.64-5.26-3.06-10.06-4.69-14.77-.24-.71-1.45-1.16-2.28-1.58-12.9-6.44-25.81-12.86-38.72-19.28-13.25-6.58-26.51-13.16-39.75-19.74-18.56-9.22-37.11-18.45-55.66-27.69-1.11-.55-2.18-1.19-3.65-1.99,3.24-2.98,6.31-5.81,9.39-8.62,2.27-2.07,4.45-4.25,6.87-6.12.88-.68,2.42-1.07,3.5-.84,2.79.61,5.55,1.49,8.2,2.56,1.94.78,3.37.76,4.87-.85,1.56-1.68,3.43-3.07,5.05-4.71,1.46-1.48,2.96-1.38,4.66-.56,13.68,6.59,27.35,13.2,41.05,19.75,18.18,8.7,36.38,17.33,54.56,26.02,16.89,8.07,33.76,16.17,50.63,24.26,1.02.49,2.03.99,3.57,1.74Z"/>
    <path class="cls-1" d="m429.12,190.54c-10.79,2.71-17.73,9.64-22.35,19.21-4.6,9.52-5.97,19.23-.92,29.42-6.46-3.59-12.64-7.01-18.8-10.46-21.38-11.93-42.76-23.88-64.15-35.81-6.81-3.8-13.62-7.57-20.47-11.29-3.17-1.72-5.97-3.85-7.73-7.02-3.49-6.27-3.18-12.71-.37-19.13,2.59-5.94,6.91-10.15,13.02-12.35,3.85-1.39,7.76-1.18,11.54.43,24.1,10.27,48.2,20.53,72.28,30.84,2.58,1.1,4.97,2.66,7.56,3.73,4.98,2.06,10.07,3.86,15.07,5.89,5.14,2.1,10.22,4.35,15.32,6.53Z"/>
    <path class="cls-1" d="m265.31,18.56c-2.57,1.83-4.53,3.49-5.85,4.67-3.03,2.71-6.31,5.14-9.23,7.96-.34.33-1.09,1.08-2.31,1.43-1.14.32-2.33.15-3.74-.24-16.81-4.65-33.66-9.16-50.49-13.72-10.44-2.83-20.87-5.66-31.31-8.49-.21-.06-.41-.15-.78-.29,2.36-1.72,4.58-3.36,6.82-4.96,2.23-1.59,4.47-3.17,6.77-4.65.46-.3,1.25-.3,1.84-.18,10.11,2.09,20.21,4.22,30.31,6.33.51.11-.19-.08,49.05,10.27,1.13.24,7.8,1.64,8.92,1.88Z"/>
    <path class="cls-1" d="m254.84,58.29c-3.76-1.24-7.27-2.39-10.78-3.56-12.69-4.2-25.39-8.41-38.08-12.61-1.63-.54-6.67-2.26-13.48-4.51-2.19-.72-3.95-1.3-4.98-1.63-3.21-1.07-6.35-2.13-9.5-3.18-2.94-.97-5.89-1.89-8.81-2.93-.63-.22-1.32-.77-1.62-1.35-2.1-4.07-4.1-8.19-6.13-12.31-.3-.62-.54-1.26-.93-2.2,3.48.93,6.62,1.75,9.75,2.6,6.41,1.74,11.34,3.1,13.26,3.64,4.63,1.29,10.18,2.86,16.48,4.69h0c25.53,6.77,44.07,11.68,45.13,11.93.15.04.76.16,1.27.65.26.25.47.57.63.99,1.6,4.19,3.25,8.35,4.89,12.52.91,2.32,1.84,4.64,2.89,7.28Z"/>
    <path class="cls-1" d="m259.3,58.1c-.95-2.4-1.78-4.54-2.63-6.67-1.78-4.46-3.55-8.93-5.35-13.38-.49-1.2-.52-2.04.69-3.01,5.1-4.09,10.09-8.32,15.11-12.51.56-.47,1.1-.98,1.86-1.66.4,1.14.72,2.05,1.04,2.96,2.12,5.99,4.23,11.98,6.39,17.95.3.84.05,1.22-.58,1.76-2.82,2.42-5.57,4.92-8.35,7.38-2.64,2.33-5.29,4.65-8.17,7.19Z"/>
    <g>
      <path class="cls-1" d="m350.11,300.93c-2.22,1.27-4.29,2.26-6.15,3.55-5.6,3.89-6.82,9.86-6.91,16.05-.15,9.87.1,19.74.13,29.62.01,3.4-1.04,6.16-4.58,7.51-5.5,2.11-10.97,4.32-16.41,6.58-5.19,2.16-10.37,4.37-15.49,6.68-7.34,3.31-10.42,9.25-10.21,17.64-3.14-2.32-6.03-4.39-8.84-6.54-28.51-21.84-57.02-43.68-85.51-65.54-7.87-6.04-15.69-12.15-23.54-18.22-3.3-2.55-3.31-5.96.33-8.14,3.15-1.89,6.53-3.46,9.93-4.86,7.57-3.12,15.44-5.61,22.79-9.17,6.69-3.24,10.82-8.86,10.82-16.76,0-9.25-.11-18.49,0-27.74.03-2.78.31-5.66,1.1-8.3.94-3.13,2.61-3.47,5.37-1.76,30.12,18.75,60.24,37.5,90.37,56.23,11.93,7.42,23.9,14.78,35.84,22.17.29.18.49.49.96.97Z"/>
      <path class="cls-1" d="m297.7,394.14c.16-3.91-.3-7.65.66-10.97.64-2.22,2.99-4.46,5.15-5.61,4.48-2.4,9.33-4.1,14.04-6.06,6.73-2.8,13.61-5.3,20.18-8.45,4.54-2.18,6.46-6.39,6.49-11.5.07-11.27.18-22.55.47-33.81.11-4.12,1.95-7.39,6.16-8.91,2.22-.8,4.37-1.82,7.01-2.94.14,3.01.36,5.6.37,8.19.04,8.9.03,17.8.01,26.69-.02,8.1-.5,16.24.04,24.3.31,4.65-1.6,6.04-5.42,7.45-10.73,3.98-21.27,8.47-31.91,12.67-7.44,2.94-14.94,5.75-23.26,8.95Z"/>
    </g>
    <g>
      <path class="cls-1" d="m313.26,69.36c9.19,3.8,17.77,7.34,26.34,10.89,25.77,10.7,51.54,21.4,77.3,32.1,7.57,3.14,15.16,6.25,22.72,9.43,3.88,1.63,7.73,2.45,11.62,1.75,2.81-.5,3.02-1.58,4.73-1.63,7.68-.22,17.98,18.54,12.81,27.66-.36.63-.67,1.48-1.95,2.5-4.03,3.19-8.19,6.31-11.71,10.02-3.2,3.37-4.7,7.79-4.55,12.6.03,1.12-.1,2.24-.18,3.86-4.72-2.05-9.15-3.95-13.55-5.89-26.96-11.83-53.9-23.69-80.86-35.51-18.12-7.94-36.25-15.86-54.39-23.75-1.94-.85-2.42-1.98-1.71-4.03,1.56-4.56,5.01-7.48,8.74-9.99,7-4.71,9.51-10.46,7.57-18.7-.83-3.54-1.81-7.04-2.92-11.32Z"/>
      <path class="cls-1" d="m466.85,83.07c-11.46,7.2-23.01,14.26-34.3,21.71-2.51,1.66-4.26,1.75-6.89.7-21.16-8.4-42.38-16.64-63.59-24.92-24.7-9.64-49.42-19.24-74.1-28.94-2.37-.93-5.33-1.31-6.28-4.56,5.02-3.22,10.01-6.42,15-9.6,3.56-2.27,7.25-4.36,10.65-6.84,1.66-1.21,3.01-1.17,4.72-.58,12.4,4.24,24.81,8.44,37.22,12.64,38.54,13.06,77.08,26.11,115.63,39.15.62.21,1.29.3,1.94.45,0,.27,0,.53,0,.8Z"/>
      <path class="cls-1" d="m492.07,156.24c.11.33.46,1.38.06,2.45-.25.67-.78,1.2-1.59,1.77-6.98,4.91-13.9,9.9-20.83,14.87-3.18,2.28-6.34,4.6-9.52,6.91-2.92-8.44-1.23-15.44,6.69-20.54,5.24-3.37,6.5-4.9,8-6.41,3.02-3.05,5.01-9.88-.93-26.96-1.94-10.52-5.57-18.11-9.2-18.18-1.15-.02-2.84.49-4.01,1.3-1.97,1.37-3.94,2.74-5.97,4.02-6.73,4.25-13.05,2.54-15.27-6.16,10.47-6.84,21.04-13.75,31.28-20.45,11.95,37.81,20.63,65.32,21.3,67.38Z"/>
    </g>
    <g>
      <path class="cls-1" d="m273.35,74c-2.98,2.01-5.93,4.06-8.94,6.03-7.68,5.03-15.39,10.01-23.08,15.02-5.44,3.54-10.85,7.14-16.36,10.58-.69.43-2.02.3-2.87-.03-13.68-5.4-27.33-10.86-40.99-16.32-14.28-5.71-28.57-11.41-42.84-17.15-13.13-5.28-26.24-10.61-39.35-15.93-.6-.25-1.16-.61-2.36-1.25,1.59-.93,2.75-1.54,3.84-2.24,10.49-6.75,20.97-13.51,31.45-20.26,3.03-1.95,5.72-2.84,9.76-1.5,29.38,9.73,58.92,19.01,88.4,28.44,13.71,4.39,27.42,8.8,41.14,13.19.72.23,1.49.33,2.24.49-.01.32-.03.63-.04.95Z"/>
      <path class="cls-1" d="m123.83,75.11c5.19,1.84,10.29,3.41,15.2,5.43,30.05,12.36,60.15,24.61,90.02,37.41,7.89,3.38,14.99,4.42,22.64-.79,1.14,3.54,2.25,6.6,3.11,9.73,1.16,4.26,2.07,8.59,3.2,12.86.61,2.31.35,4.06-1.72,5.66-2.59,2-5.03,4.24-7.28,6.62-3.8,4-6.62,8.54-6.14,14.89-3.26-1.39-6.16-2.57-9.02-3.85-16.84-7.55-33.67-15.13-50.52-22.68-23.54-10.54-47.08-21.07-70.63-31.58-1.83-.82-2.52-1.93-1.07-3.53,1.6-1.77,3.3-3.48,5.13-5,4.2-3.48,9-6.69,9.21-12.76.11-3.28-1.03-6.61-1.63-9.92-.17-.94-.39-1.87-.52-2.49Z"/>
      <path class="cls-1" d="m282.16,77.03c2.91,6.38-.4,10.6-4.79,14.45-1.82,1.59-3.57,3.26-5.46,4.76-4.21,3.34-4.9,7.52-3.57,12.5,2.39,8.94,4.58,17.94,6.84,26.92.25.97.63,1.63,1.22,1.9.75.34,1.6-.06,1.99-.24,3.28-1.56,6.64-4.14,9.61-5.38,1.78-.75,4.63-1.94,6.85-.62,2.55,1.52,2.61,5.38,2.61,5.98-2.22,1.37-7.33,4.06-13.77,3.33-1.74-.2-3.28-.61-4.57-1.09,1.38.44,3.26.9,5.52.98,7.28.27,12.62-3.57,12.82-3.23.15.25-2.75,2.4-14.32,9.72-10.55,7.68-21.12,15.37-31.97,23.27-1.37-3.4-2.48-6.59-.07-9.5,2.67-3.23,5.49-6.44,8.7-9.11,5.41-4.5,6.3-9.62,4.21-16.16-2.47-7.74-4.24-15.7-6.21-23.59-.85-3.41-2.09-4.13-5.4-2.68-3.48,1.53-6.92,3.16-10.42,4.67-2.58,1.11-4.69.21-6.5-1.76-2.09-2.29-2.01-3.38.54-5.07,10.18-6.72,20.38-13.41,30.56-20.13,4.62-3.04,9.22-6.12,13.85-9.15.55-.36,1.22-.55,1.72-.77Z"/>
    </g>
    <g>
      <path class="cls-1" d="m388.54,280.32c1.37,4.96-1.94,11.86-6.28,14.82-1.81,1.23-3.66,2.43-5.97,2.25-4.03-.31-6.36-2.99-6.6-7.48-.3-5.75,4.21-12.62,9.65-14.7,3.33-1.27,8.45,0,9.21,5.1Z"/>
      <path class="cls-1" d="m378.65,271.7c-.8-.52-1.3-.88-1.83-1.19-3.9-2.28-7.8-4.55-11.7-6.83-15.53-9.1-31.06-18.22-46.6-27.32-16.55-9.69-33.15-19.29-49.62-29.1-4.22-2.51-8.1-1.66-11.17,1.3-4.23,4.07-3.94,11.07.57,13.98,15.53,10.03,31.06,20.06,46.59,30.09,19.16,12.37,38.32,24.73,57.47,37.1,1.18.77,2.3,1.64,3.44,2.46-.55-8.31,4.4-17.41,12.85-20.48Zm-118.99-55.23c2.81-2.65,6.04-3.63,9.93-2.98-1.23,2.86-7.03,4.59-9.93,2.98Zm8.88,5.66c1.25-2.58,5.89-4.05,10.03-3.19-1.38,2.7-6.93,4.47-10.03,3.19Zm8.48,5.61c1.43-2.81,6.9-4.51,10.86-3.26-3.3,2.84-6.72,4.17-10.86,3.26Zm8.54,5.51c1.41-2.82,7.74-4.78,11.14-3.34-3.29,2.85-6.89,4.06-11.14,3.34Zm8.8,5.54c.52-2.59,7.59-4.92,11.31-3.57-3.37,2.95-7.09,3.95-11.31,3.57Zm8.31,4.86c3.43-2.76,7.28-3.83,11.66-3.49-1.26,2.93-9.24,5.31-11.66,3.49Zm8.39,5.6c3.76-2.85,7.7-4.33,12.45-3.6-2.44,3.08-9.23,5.06-12.45,3.6Zm8.64,5.87c2.45-3.18,9.57-5.26,12.84-3.77-3.85,2.99-7.98,4.16-12.84,3.77Zm21.77,1.62c-3.97,3.03-8.3,3.93-13.11,3.96,1.89-3.1,9.9-5.54,13.11-3.96Zm-4.77,9.04c4.1-3.18,8.4-4.58,13.31-4.19-.45,2.5-8.87,5.29-13.31,4.19Zm8.79,5.12c4.29-2.79,8.57-4.57,13.59-3.89-1.26,2.83-10.75,5.68-13.59,3.89Zm8.31,5.67c4.54-3,9.01-4.91,14.44-4.15-2.45,3.05-10.43,5.4-14.44,4.15Z"/>
    </g>
    <g>
      <path class="cls-1" d="m412.53,257.91c1.55,4.91-1.51,11.92-5.75,15.04-1.76,1.3-3.57,2.56-5.89,2.46-4.04-.17-6.47-2.76-6.86-7.24-.51-5.74,3.75-12.76,9.11-15.04,3.29-1.39,8.45-.31,9.39,4.77Z"/>
      <path class="cls-1" d="m402.33,249.65c-.82-.49-1.33-.83-1.87-1.12-3.98-2.14-7.96-4.27-11.94-6.41-15.85-8.54-31.69-17.09-47.55-25.63-16.88-9.09-33.82-18.09-50.63-27.31-4.31-2.36-8.15-1.36-11.12,1.7-4.08,4.22-3.54,11.2,1.07,13.95,15.88,9.46,31.76,18.93,47.64,28.4,19.59,11.67,39.18,23.34,58.76,35.02,1.21.72,2.35,1.56,3.53,2.34-.84-8.28,3.77-17.55,12.11-20.93Zm-120.89-50.93c2.72-2.75,5.91-3.84,9.82-3.34-1.12,2.91-6.86,4.84-9.82,3.34Zm9.08,5.34c1.15-2.62,5.74-4.26,9.91-3.54-1.29,2.75-6.77,4.71-9.91,3.54Zm8.68,5.3c1.33-2.86,6.74-4.76,10.74-3.65-3.2,2.95-6.57,4.41-10.74,3.65Zm8.73,5.2c1.31-2.86,7.57-5.06,11.02-3.74-3.19,2.97-6.74,4.3-11.02,3.74Zm9,5.22c.43-2.61,7.41-5.19,11.17-3.97-3.27,3.07-6.94,4.2-11.17,3.97Zm8.48,4.56c3.33-2.89,7.14-4.09,11.53-3.9-1.15,2.97-9.04,5.64-11.53,3.9Zm8.58,5.29c3.66-2.98,7.54-4.6,12.31-4.04-2.33,3.17-9.04,5.39-12.31,4.04Zm8.84,5.56c2.33-3.27,9.38-5.6,12.69-4.23-3.74,3.12-7.82,4.44-12.69,4.23Zm21.81.83c-3.86,3.17-8.15,4.23-12.96,4.43,1.78-3.17,9.7-5.89,12.96-4.43Zm-4.45,9.21c3.99-3.33,8.23-4.88,13.15-4.67-.36,2.52-8.68,5.6-13.15,4.67Zm8.97,4.8c4.19-2.94,8.4-4.88,13.44-4.37-1.16,2.87-10.54,6.06-13.44,4.37Zm8.51,5.37c4.43-3.16,8.83-5.23,14.28-4.66-2.34,3.13-10.23,5.77-14.28,4.66Z"/>
    </g>
  </g>
</svg>